<?xml version="1.0" encoding="utf-8"?>
<!-- Generator: Adobe Illustrator 19.0.0, SVG Export Plug-In . SVG Version: 6.00 Build 0)  -->
<svg version="1.1" id="Layer_1" xmlns="http://www.w3.org/2000/svg" xmlns:xlink="http://www.w3.org/1999/xlink" x="0px" y="0px"
	 viewBox="0 0 224 91.5" style="enable-background:new 0 0 224 91.5;" xml:space="preserve">
<style type="text/css">
	.st0{fill:#0FD186;}
	.st1{fill:#43BAFF;}
	.st2{fill:#08659E;}
	.st3{fill:#FFFFFF;}
</style>
<g id="XMLID_135_">
	<path id="XMLID_319_" class="st0" d="M52.9,48l-0.4,5.9H38.1h-5.9l0.4-5.9l1-14.4h5.9l-1,14.4H52.9z"/>
	<path id="XMLID_321_" class="st0" d="M74.3,48l-0.4,5.9H61.7h-5.9l0.4-5.9l0.1-1.2l0.4-5.9l0.1-1.3l0.4-5.9h5.9h10.7l-0.4,5.9H62.7
		l-0.1,1.3h9.2l-0.4,5.9h-9.2L62.1,48H74.3z"/>
	<path id="XMLID_323_" class="st0" d="M97.2,33.7L95.7,54h-5.9l0.1-0.9c-0.7,0.4-1.4,0.6-2.1,0.7c-0.7,0.1-1.5,0.2-2.2,0.2
		c-1.4,0-2.7-0.3-3.9-0.8c-1.2-0.5-2.2-1.2-3.1-2.2c-0.8-0.9-1.5-2-1.9-3.2c-0.4-1.2-0.6-2.6-0.5-4c0.1-1.4,0.5-2.7,1.1-4
		c0.6-1.2,1.4-2.3,2.4-3.2c1-0.9,2.1-1.6,3.4-2.2c1.3-0.5,2.6-0.8,4-0.8c0.8,0,1.5,0.1,2.2,0.2c0.7,0.2,1.4,0.4,2,0.7l0.1-0.9H97.2z
		 M86,47.7c0.5,0,1-0.1,1.5-0.3c0.5-0.2,0.9-0.5,1.3-0.8c0.4-0.4,0.7-0.8,0.9-1.2c0.2-0.5,0.4-1,0.4-1.5c0-0.5,0-1-0.2-1.5
		c-0.2-0.5-0.4-0.9-0.7-1.2s-0.7-0.6-1.1-0.8c-0.4-0.2-0.9-0.3-1.4-0.3s-1,0.1-1.5,0.3c-0.5,0.2-0.9,0.5-1.3,0.8
		c-0.4,0.3-0.7,0.7-0.9,1.2c-0.2,0.5-0.4,1-0.4,1.5c0,0.5,0,1,0.2,1.5c0.2,0.5,0.4,0.9,0.7,1.2c0.3,0.4,0.7,0.6,1.2,0.8
		C85,47.6,85.5,47.7,86,47.7z"/>
	<path id="XMLID_336_" class="st0" d="M108.3,33.7c1.4,0,2.7,0.3,3.9,0.8c1.2,0.5,2.2,1.2,3.1,2.2c0.9,0.9,1.5,2,2,3.2
		c0.4,1.2,0.6,2.6,0.5,4c-0.1,1.4-0.5,2.7-1.1,4c-0.6,1.2-1.4,2.3-2.4,3.2c-1,0.9-2.1,1.6-3.4,2.2c-1.3,0.5-2.6,0.8-4,0.8h-2.5h-2.5
		h-3.4l1.4-20.3h3.4h2.5H108.3z M107.3,48.1c1.2,0,2.2-0.4,3.1-1.2c0.9-0.8,1.4-1.8,1.4-3c0.1-1.2-0.3-2.2-1-3
		c-0.8-0.8-1.7-1.2-2.9-1.2h-2.5l-0.6,8.5H107.3z"/>
	<path id="XMLID_340_" class="st1" d="M131.1,41.6c0.8,0.3,1.4,0.8,2,1.4c0.5,0.6,1,1.3,1.2,2c0.3,0.8,0.4,1.6,0.3,2.5
		c-0.1,0.9-0.3,1.7-0.7,2.5c-0.4,0.8-0.9,1.5-1.5,2.1c-0.6,0.6-1.3,1-2.2,1.4c-0.8,0.3-1.7,0.5-2.6,0.5H121l0.4-5.5h6.7
		c0.2,0,0.4-0.1,0.6-0.2s0.3-0.4,0.4-0.7c0-0.2-0.1-0.4-0.3-0.6c-0.2-0.2-0.4-0.3-0.6-0.3h-0.9c-0.9,0-1.7-0.2-2.5-0.5
		c-0.8-0.3-1.4-0.8-2-1.4c-0.5-0.6-1-1.3-1.2-2.1c-0.3-0.8-0.4-1.6-0.3-2.5c0.1-0.9,0.3-1.7,0.7-2.5c0.4-0.8,0.9-1.5,1.5-2.1
		c0.6-0.6,1.3-1,2.2-1.4c0.8-0.3,1.7-0.5,2.6-0.5h6.8l-0.4,5.5h-6.8c-0.2,0-0.4,0.1-0.6,0.2c-0.2,0.2-0.3,0.4-0.4,0.7
		c0,0.2,0.1,0.4,0.3,0.6c0.2,0.2,0.4,0.3,0.6,0.3h0.9C129.5,41.1,130.3,41.3,131.1,41.6z"/>
	<path id="XMLID_349_" class="st1" d="M166.9,39.6l-0.1,1.3h5.1l-0.4,5.9h-5.1l-0.5,7.1H160l0.5-7.1l0.4-5.9l0.1-1.3l0.4-5.9h5.9
		h10.3l-0.4,5.9H166.9z"/>
	<path id="XMLID_351_" class="st1" d="M196.5,38.8h-5.1L190.3,54h-5.9l1.1-15.2h-5.1l0.4-5h5.1h5.9h5.1L196.5,38.8z"/>
	<path id="XMLID_318_" class="st2" d="M157.9,39.7c-0.5-1.3-1.1-2.4-2-3.3c-0.9-0.9-1.9-1.7-3.1-2.2c-1.2-0.5-2.6-0.8-4-0.8
		s-2.8,0.3-4.1,0.8c-1.3,0.5-2.4,1.3-3.5,2.2c-1,0.9-1.8,2-2.4,3.3c-0.6,1.3-1,2.6-1.1,4.1c-0.1,1.5,0.1,2.8,0.5,4.1
		c0.5,1.3,1.1,2.4,2,3.3c0.9,0.9,1.9,1.7,3.1,2.2c1.2,0.5,2.6,0.8,4,0.8s2.8-0.3,4.1-0.8c1.3-0.5,2.5-1.3,3.5-2.2
		c1-0.9,1.8-2,2.5-3.3c0.6-1.3,1-2.6,1.1-4.1C158.5,42.3,158.4,40.9,157.9,39.7z"/>
	<g id="XMLID_354_">
		<path id="XMLID_142_" class="st3" d="M150.8,49.6c0,0,0.8-6.1-3.9-11.6c11.5,5.1,11.5,5.1,11.5,5.1L150.8,49.6z"/>
		<path id="XMLID_141_" class="st3" d="M145,54l5.2-4.3c0,0,0.3-9.4-8-14.4C145,54,145,54,145,54z"/>
	</g>
</g>
</svg>
