<svg width="56" height="56" viewBox="0 0 56 56" fill="none" xmlns="http://www.w3.org/2000/svg">
<g opacity="0.4" clip-path="url(#clip0_181_770)">
<path d="M49.5507 39.5197C49.2436 39.3924 48.8901 39.4627 48.6549 39.6978L39.6724 48.6803C39.4373 48.9155 39.367 49.269 39.4943 49.5761C39.6214 49.8833 39.9213 50.0835 40.2537 50.0835H49.2362C49.6902 50.0835 50.0582 49.7156 50.0582 49.2615V40.279C50.0581 39.9466 49.8578 39.6469 49.5507 39.5197ZM42.2378 48.4397L48.4141 42.2634V48.4397H42.2378Z" fill="black"/>
<path d="M55.4927 26.3448C55.1856 26.2175 54.8321 26.2879 54.5969 26.5229L52.1352 28.9846V12.2468C52.1352 11.7928 51.7672 11.4249 51.3133 11.4249H44.9978L47.2903 9.13237C47.2907 9.13204 47.291 9.1316 47.2913 9.13127L49.5003 6.92233C49.9735 6.44906 50.2342 5.8195 50.2342 5.15012C50.2342 4.48075 49.9735 3.8514 49.5003 3.37792L46.9459 0.823568C46.4727 0.350302 45.8431 0.0896606 45.1737 0.0896606C44.5043 0.0896606 43.8749 0.350302 43.4015 0.823568L41.1915 3.0336L38.521 5.70411L32.8003 11.4248H7.28658V3.29326C7.28658 2.83924 6.91853 2.47131 6.46462 2.47131C2.90008 2.47152 0 5.37139 0 8.93615V43.8472C0 43.9079 0.00700001 43.9669 0.0194688 44.0238C0.133 45.5364 0.787392 46.9417 1.88104 48.0086C3.05004 49.1487 4.59321 49.7766 6.2264 49.7766H31.3431L26.6127 54.507C26.3777 54.7421 26.3074 55.0955 26.4346 55.4028C26.5618 55.7099 26.8616 55.9102 27.194 55.9102H55.1782C55.6321 55.9102 56.0001 55.5422 56.0001 55.0882V27.1042C56.0001 26.7718 55.7997 26.4721 55.4927 26.3448ZM44.5642 1.98612C44.9002 1.6499 45.4476 1.6499 45.7836 1.98612L48.3381 4.54058C48.6743 4.87669 48.6743 5.42389 48.3381 5.76011L46.7093 7.38892L42.9352 3.61493L44.5642 1.98612ZM41.7728 4.77737L45.5468 8.55125L44.0386 10.0594L40.2649 6.28555L41.7728 4.77737ZM54.3564 36.3401H52.8399C52.3859 36.3401 52.018 36.708 52.018 37.1621C52.018 37.6161 52.3859 37.984 52.8399 37.984H54.3564V40.4609H52.8399C52.3859 40.4609 52.018 40.8289 52.018 41.2829C52.018 41.7369 52.3859 42.1048 52.8399 42.1048H54.3564V44.5816H52.8399C52.3859 44.5816 52.018 44.9496 52.018 45.4036C52.018 45.8576 52.3859 46.2255 52.8399 46.2255H54.3564V48.7024H52.8399C52.3859 48.7024 52.018 49.0705 52.018 49.5244C52.018 49.9784 52.3859 50.3464 52.8399 50.3464H54.3564V54.2666H29.1782L37.4807 45.9642C37.8017 45.6431 37.8017 45.1228 37.4807 44.8018C37.4438 44.7649 37.4042 44.733 37.3628 44.7046C37.0428 44.4854 36.6024 44.5176 36.3182 44.8018L32.987 48.1329H6.22651C3.73363 48.1329 1.72682 46.1867 1.64785 43.6983C1.65255 43.5421 1.66469 43.3873 1.68416 43.2341C1.68427 43.2333 1.68438 43.2324 1.68449 43.2315C1.69368 43.1588 1.70472 43.0864 1.7173 43.0144C1.71872 43.0062 1.72025 42.998 1.72168 42.9898C1.73316 42.9256 1.74607 42.8617 1.76018 42.798C1.76411 42.7803 1.76827 42.7626 1.77243 42.745C1.78489 42.6912 1.79835 42.6377 1.81278 42.5844C1.82066 42.5556 1.82886 42.527 1.83729 42.4983C1.84932 42.4565 1.86179 42.4148 1.87502 42.3736C1.88825 42.3323 1.90236 42.2915 1.91669 42.2507C1.92664 42.2222 1.93649 42.1936 1.94721 42.1653C1.96722 42.1115 1.98844 42.0582 2.01032 42.0054C2.01655 41.9902 2.02268 41.9748 2.02913 41.9596C2.05724 41.894 2.08644 41.8291 2.11729 41.765C2.1186 41.7623 2.1198 41.7595 2.12111 41.7568C2.76402 40.4264 4.00051 39.4344 5.4844 39.1267C5.48856 39.1258 5.49271 39.1248 5.49687 39.1239C5.5649 39.11 5.63359 39.0981 5.70271 39.0871C5.7142 39.0852 5.72568 39.0829 5.73739 39.0812C5.79984 39.0716 5.86295 39.0642 5.92606 39.0571C5.94378 39.0551 5.96139 39.0524 5.97922 39.0506C6.04014 39.0445 6.10161 39.0405 6.16307 39.0366C6.18254 39.0354 6.20201 39.0334 6.22148 39.0324C6.30198 39.0283 6.38314 39.0262 6.46462 39.0262C6.91853 39.0262 7.28658 38.6583 7.28658 38.2043V32.2445C7.28658 31.7905 6.91853 31.4226 6.46462 31.4226C6.01072 31.4226 5.64267 31.7905 5.64267 32.2445V37.4341C4.2547 37.6096 2.96637 38.2287 1.95049 39.2207C1.84363 39.3251 1.74235 39.4336 1.64369 39.5438V8.93615C1.64369 6.55822 3.37466 4.57667 5.64256 4.18532V12.2468V28.9568V28.9569C5.64256 29.4109 6.01061 29.7789 6.46451 29.7789C6.91842 29.7789 7.28647 29.4109 7.28647 28.9569V28.9568V13.0688H31.1565L26.6126 17.6127C26.2916 17.9338 26.2916 18.4541 26.6126 18.7751C26.9336 19.096 27.4541 19.096 27.775 18.7751L33.722 12.828C33.7222 12.8278 33.7224 12.8276 33.7226 12.8275L39.1022 7.44788L42.876 11.2219L42.4332 11.6646C42.4329 11.6649 42.4324 11.6653 42.4321 11.6656L25.8587 28.2392L22.0848 24.4653L25.3516 21.1985C25.6727 20.8774 25.6727 20.3571 25.3516 20.0361C25.0306 19.7152 24.5102 19.7152 24.1893 20.0361L20.3412 23.8841C20.3206 23.9047 20.3014 23.9265 20.2833 23.9488C20.2773 23.9562 20.2719 23.9642 20.2662 23.972C20.2547 23.9874 20.2433 24.0029 20.2327 24.0191C20.2267 24.0285 20.2212 24.0381 20.2155 24.0479C20.2064 24.0632 20.1977 24.0787 20.1897 24.0946C20.1844 24.1048 20.1797 24.1152 20.1749 24.126C20.1676 24.142 20.1608 24.1584 20.1546 24.1748C20.1524 24.1806 20.1495 24.1861 20.1475 24.1919L18.5461 28.7282L17.4543 31.8213C17.4399 31.8624 17.4295 31.9042 17.4217 31.9463H14.6882C14.2343 31.9463 13.8663 32.3142 13.8663 32.7682C13.8663 33.2223 14.2343 33.5902 14.6882 33.5902H37.4507C37.9048 33.5902 38.2727 33.2223 38.2727 32.7682C38.2727 32.3142 37.9048 31.9463 37.4507 31.9463H21.1196L26.1323 30.1768C26.1364 30.1753 26.1404 30.1732 26.1445 30.1717C26.164 30.1645 26.1831 30.1564 26.202 30.1477C26.2096 30.1442 26.2171 30.1409 26.2245 30.1373C26.2441 30.1275 26.2635 30.1167 26.2825 30.1051C26.2887 30.1013 26.295 30.0979 26.301 30.0941C26.3208 30.0814 26.3401 30.0675 26.359 30.0529C26.3637 30.0493 26.3686 30.0461 26.3732 30.0424C26.3961 30.024 26.4185 30.0042 26.4397 29.983L43.3539 13.0689H50.4912V30.6286L38.7338 42.3861C38.4128 42.7073 38.4128 43.2276 38.7338 43.5486C38.7538 43.5686 38.7747 43.5874 38.7963 43.605C38.947 43.7279 39.1311 43.7893 39.315 43.7893C39.499 43.7893 39.6832 43.7279 39.8338 43.605C39.8553 43.5875 39.8762 43.5686 39.8963 43.5486C39.8966 43.5483 39.8963 43.5486 39.8966 43.5483L54.3564 29.0883V36.3401ZM24.3553 29.0605L22.0009 29.8917L20.4323 28.323L21.2634 25.9686L24.3553 29.0605Z" fill="black"/>
</g>
<defs>
<clipPath id="clip0_181_770">
<rect width="56" height="56" fill="white"/>
</clipPath>
</defs>
</svg>
