<svg width="56" height="56" viewBox="0 0 56 56" fill="none" xmlns="http://www.w3.org/2000/svg">
<g opacity="0.4">
<path d="M3.39062 54.3594C3.39062 55.2656 4.12506 56 5.03125 56H14.875C16.4524 56 17.858 55.2532 18.7595 54.0953C22.7585 55.3587 26.9097 56 31.1086 56H44.4062C47.1201 56 49.3281 53.792 49.3281 51.0781C49.3281 50.4377 49.2038 49.8259 48.9803 49.264C51.0687 48.6949 52.6094 46.7822 52.6094 44.5156C52.6094 43.2561 52.133 42.106 51.352 41.2344C52.1334 40.3628 52.6094 39.2126 52.6094 37.9531C52.6094 36.6936 52.133 35.5435 51.352 34.6719C52.1334 33.8003 52.6094 32.6501 52.6094 31.3906C52.6094 28.6768 50.4014 26.4688 47.6875 26.4688H38.7072C38.8345 26.1671 38.9661 25.8612 39.1003 25.5502C40.0958 23.2418 41.125 20.8547 41.125 18.2656C41.125 13.7308 37.4571 9.95312 32.9219 9.95312C32.14 9.95312 31.4667 10.5051 31.3133 11.272L30.4755 15.4612C29.3749 20.9633 28.1594 21.5862 23.637 23.9036C22.4415 24.5158 21.0372 25.2357 19.3983 26.1701C18.6437 24.418 16.9006 23.1875 14.875 23.1875H5.03125C4.12506 23.1875 3.39062 23.9219 3.39062 24.8281V54.3594ZM25.1328 26.8238C27.5817 25.569 29.3505 24.6628 30.7357 23.1285C32.152 21.5593 33.009 19.5243 33.6931 16.1046L34.2292 13.4224C36.2869 14.0248 37.8438 15.9991 37.8438 18.2656C37.8438 20.1771 36.9508 22.248 36.0869 24.2509C35.7737 24.9777 35.4542 25.7206 35.1696 26.4688H32.9219C32.0157 26.4688 31.2812 27.2032 31.2812 28.1094C31.2812 29.0156 32.0157 29.75 32.9219 29.75H47.6875C48.592 29.75 49.3281 30.4861 49.3281 31.3906C49.3281 32.2951 48.592 33.0312 47.6875 33.0312H44.4062C43.5001 33.0312 42.7656 33.7657 42.7656 34.6719C42.7656 35.5781 43.5001 36.3125 44.4062 36.3125H47.6875C48.592 36.3125 49.3281 37.0486 49.3281 37.9531C49.3281 38.8576 48.592 39.5938 47.6875 39.5938H44.4062C43.5001 39.5938 42.7656 40.3282 42.7656 41.2344C42.7656 42.1406 43.5001 42.875 44.4062 42.875H47.6875C48.592 42.875 49.3281 43.6111 49.3281 44.5156C49.3281 45.4201 48.592 46.1562 47.6875 46.1562H44.4062C43.5001 46.1562 42.7656 46.8907 42.7656 47.7969C42.7656 48.7031 43.5001 49.4375 44.4062 49.4375C45.3107 49.4375 46.0469 50.1736 46.0469 51.0781C46.0469 51.9826 45.3107 52.7188 44.4062 52.7188H31.1086C27.263 52.7188 23.4609 52.1343 19.7969 50.9824V29.7359C21.9122 28.4747 23.6814 27.5676 25.1328 26.8238ZM6.67188 26.4688H14.875C15.7795 26.4688 16.5156 27.2049 16.5156 28.1094V51.0781C16.5156 51.9826 15.7795 52.7188 14.875 52.7188H6.67188V26.4688Z" fill="black"/>
<path d="M13.2344 47.7969C13.2344 48.7031 12.4999 49.4375 11.5938 49.4375C10.6876 49.4375 9.95312 48.7031 9.95312 47.7969C9.95312 46.8907 10.6876 46.1562 11.5938 46.1562C12.4999 46.1562 13.2344 46.8907 13.2344 47.7969Z" fill="black"/>
<path d="M32.9219 1.64062V5.03125C32.9219 5.93744 33.6563 6.67188 34.5625 6.67188C35.4687 6.67188 36.2031 5.93744 36.2031 5.03125V1.64062C36.2031 0.734436 35.4687 0 34.5625 0C33.6563 0 32.9219 0.734436 32.9219 1.64062Z" fill="black"/>
<path d="M43.2463 4.35149L40.926 6.67186C40.2851 7.31273 40.2851 8.35136 40.926 8.99223C41.5668 9.63268 42.6055 9.63268 43.2463 8.99223L45.5663 6.67186C46.2072 6.03099 46.2072 4.99236 45.5663 4.35149C44.9254 3.71104 43.8868 3.71104 43.2463 4.35149Z" fill="black"/>
<path d="M23.5588 4.35149C22.9179 4.99236 22.9179 6.03099 23.5588 6.67186L25.8787 8.99223C26.5196 9.63268 27.5582 9.63268 28.1991 8.99223C28.8395 8.35136 28.8395 7.31273 28.1991 6.67186L25.8787 4.35149C25.2383 3.71104 24.1992 3.71104 23.5588 4.35149Z" fill="black"/>
</g>
</svg>
