<svg width="56" height="56" viewBox="0 0 56 56" fill="none" xmlns="http://www.w3.org/2000/svg">
<g opacity="0.4">
<path d="M54.6769 26.2026C53.8387 25.4293 52.6983 24.9516 51.5482 24.8918C50.2421 24.8243 49.0185 25.29 48.1072 26.2017L41.8805 32.3631C41.7574 32.1499 41.6169 31.9486 41.4592 31.7619C40.6931 30.8523 39.5729 30.3516 38.3053 30.3516H29.5886C27.945 30.3516 26.3415 30.1384 24.8231 29.7184C20.8642 28.6234 17.0822 29.4232 13.8852 32.0328C12.585 33.0941 11.6366 34.2485 11.0367 35.0902L9.47384 33.5735C9.26833 33.3739 8.98977 33.2607 8.70309 33.2607C8.70052 33.2607 8.69839 33.2607 8.69582 33.2607C8.39889 33.2628 8.11178 33.3863 7.90585 33.5999L0.308125 41.4873C0.104756 41.6984 -0.00590092 41.9821 0.000507773 42.2752C0.00691647 42.5687 0.129536 42.8473 0.341878 43.0493L13.1922 55.2853C13.4054 55.4882 13.6788 55.5895 13.9518 55.5895C14.2385 55.5895 14.5252 55.4779 14.7409 55.2566L22.2677 47.5346C22.4732 47.3235 22.5873 47.0351 22.5818 46.7403C22.5762 46.4498 22.4544 46.1695 22.2459 45.967L21.5905 45.3313L23.0906 45.1625C23.9981 45.057 24.9209 45.0036 25.8344 45.0036H39.0965C41.2516 45.0036 43.0819 44.5323 44.5371 43.6026C44.549 43.5949 44.561 43.5868 44.573 43.5787C45.0942 43.2164 45.5672 42.787 45.9782 42.3029L54.9153 31.7888C56.4449 29.9897 56.3492 27.7445 54.6769 26.2026ZM13.9232 52.9392L2.66353 42.2179L8.72915 35.9207L19.923 46.7835L13.9232 52.9392ZM53.2367 30.3618L44.2995 40.8764C44.0158 41.2101 43.6907 41.5066 43.3322 41.7578C42.2398 42.4495 40.8149 42.8007 39.0965 42.8007H25.834C24.8363 42.8007 23.8276 42.8592 22.8402 42.9742L19.5428 43.3441L12.6385 36.6441C13.1182 35.9327 14.0005 34.783 15.2784 33.7397C17.935 31.5709 20.9488 30.9322 24.2356 31.8418C25.9455 32.3148 27.7463 32.5549 29.5886 32.5549H38.3053C39.8707 32.5549 40.2885 33.911 40.2885 34.7121C40.2885 35.2974 40.1006 35.8545 39.7729 36.2408C39.4174 36.659 38.912 36.8709 38.2707 36.8709H30.6828C30.0744 36.8709 29.5813 37.3644 29.5813 37.9728C29.5813 38.5812 30.0744 39.0742 30.6828 39.0742H38.2707C39.5515 39.0742 40.6812 38.5744 41.4519 37.6669C42.0932 36.9124 42.459 35.9203 42.4897 34.8599L49.661 27.7638C50.686 26.7388 52.2873 26.996 53.1833 27.8223C53.6464 28.2495 54.2693 29.1472 53.2367 30.3618Z" fill="black"/>
<path d="M27.2472 37.6793C27.1084 37.0867 26.5158 36.7197 25.9232 36.8581C25.331 36.997 24.9632 37.5896 25.1025 38.1822L25.1127 38.227C25.2319 38.7346 25.6844 39.0772 26.1843 39.0772C26.2676 39.0772 26.3522 39.0678 26.4368 39.0482C27.0293 38.9093 27.3968 38.3163 27.2579 37.7241L27.2472 37.6793Z" fill="black"/>
<path d="M7.44611 23.6797H18.1802C18.7647 23.6797 19.3056 23.49 19.7457 23.1696C20.1857 23.49 20.7266 23.6797 21.3111 23.6797H32.0457C32.6301 23.6797 33.171 23.49 33.6111 23.1696C34.0512 23.49 34.5921 23.6797 35.1765 23.6797H45.9107C47.3812 23.6797 48.5775 22.483 48.5775 21.0124V16.0068C48.5775 13.7586 47.3193 11.8057 45.436 10.8422C46.3486 9.74164 46.898 8.33002 46.898 6.79193C46.898 3.28809 44.0474 0.4375 40.5436 0.4375C37.0398 0.4375 34.1892 3.28809 34.1892 6.79193C34.1892 8.33002 34.7386 9.74207 35.6512 10.8422C34.8373 11.2592 34.1405 11.8612 33.6111 12.5914C33.0817 11.8608 32.3849 11.2588 31.5706 10.8422C32.4832 9.74207 33.0326 8.33002 33.0326 6.79193C33.0326 3.28809 30.182 0.4375 26.6782 0.4375C23.1743 0.4375 20.3237 3.28809 20.3237 6.79193C20.3237 8.33002 20.8736 9.74207 21.7862 10.8427C20.9719 11.2592 20.275 11.8612 19.7457 12.5918C19.2163 11.8612 18.5195 11.2592 17.7051 10.8422C18.6177 9.74207 19.1672 8.33002 19.1672 6.79236C19.1672 3.28809 16.3166 0.4375 12.8127 0.4375C9.30933 0.4375 6.45874 3.28809 6.45874 6.79236C6.45874 8.33002 7.00818 9.74207 7.92078 10.8427C6.03748 11.8061 4.77881 13.7595 4.77881 16.0072V21.0124C4.77881 22.483 5.97553 23.6797 7.44611 23.6797ZM40.544 2.64081C42.8328 2.64081 44.6952 4.50275 44.6952 6.79193C44.6952 9.08069 42.8328 10.9431 40.544 10.9431C38.2548 10.9431 36.3929 9.08112 36.3929 6.79193C36.3925 4.50275 38.2548 2.64081 40.544 2.64081ZM37.6819 12.4628C38.5428 12.899 39.5148 13.1464 40.5436 13.1464C41.5728 13.1464 42.5448 12.899 43.4053 12.4628C45.1173 12.761 46.3747 14.2363 46.3747 16.0068V21.0124C46.3747 21.2683 46.1666 21.4764 45.9107 21.4764H35.1765C34.921 21.4764 34.713 21.2683 34.713 21.0124V16.0068C34.7125 14.2367 35.9704 12.761 37.6819 12.4628ZM26.6786 2.64081C28.9674 2.64081 30.8297 4.50275 30.8297 6.79193C30.8297 9.08069 28.9674 10.9431 26.6786 10.9431C24.3894 10.9431 22.5275 9.08112 22.5275 6.79193C22.5275 4.50275 24.3894 2.64081 26.6786 2.64081ZM23.8169 12.4628C24.6774 12.899 25.6494 13.1464 26.6786 13.1464C27.7078 13.1464 28.6794 12.899 29.5403 12.4628C31.2518 12.761 32.5097 14.2363 32.5097 16.0068V21.0124C32.5097 21.2683 32.3016 21.4764 32.0457 21.4764H21.3115C21.0556 21.4764 20.8475 21.2683 20.8475 21.0124V16.0068C20.8475 14.2367 22.1054 12.761 23.8169 12.4628ZM12.8132 2.64081C15.1019 2.64081 16.9643 4.50275 16.9643 6.79193C16.9643 9.08069 15.1019 10.9431 12.8132 10.9431C10.5244 10.9431 8.66205 9.08069 8.66205 6.79193C8.66205 4.50275 10.5244 2.64081 12.8132 2.64081ZM6.98212 16.0068C6.98212 14.2367 8.23993 12.761 9.95148 12.4628C10.8124 12.899 11.7839 13.1464 12.8132 13.1464C13.8424 13.1464 14.814 12.899 15.6749 12.4628C17.3868 12.761 18.6442 14.2363 18.6442 16.0068V21.0124C18.6442 21.2683 18.4362 21.4764 18.1802 21.4764H7.44611C7.19019 21.4764 6.98212 21.2683 6.98212 21.0124V16.0068Z" fill="black"/>
</g>
</svg>
