<svg width="56" height="56" viewBox="0 0 56 56" fill="none" xmlns="http://www.w3.org/2000/svg">
<g opacity="0.4">
<path d="M36.3608 13.9201C35.8506 13.4104 35.1726 13.1293 34.4514 13.1293C33.7302 13.1293 33.0522 13.4104 32.5425 13.9201C32.0323 14.4302 31.7512 15.1083 31.7512 15.8295C31.7512 16.5507 32.0323 17.2287 32.5421 17.7384L37.1418 22.3381C37.6515 22.8478 38.33 23.129 39.0511 23.129C39.7723 23.129 40.45 22.8478 40.9601 22.3381L50.7876 12.5106C51.2977 12.0005 51.5784 11.3224 51.5784 10.6017C51.5784 9.88049 51.2977 9.20245 50.7876 8.69232C50.2779 8.18219 49.5994 7.90149 48.8782 7.90149C48.157 7.90149 47.479 8.18219 46.9693 8.69232L45.8858 9.77582C45.083 9.16315 44.202 8.67181 43.2685 8.31635V7.08801C43.2685 5.59906 42.0573 4.38782 40.5687 4.38782H32.1024V3.45044C32.1024 1.54791 30.5545 0 28.652 0H19.2103C17.3077 0 15.7598 1.54791 15.7598 3.45044V7.34906C15.7598 8.40607 16.6199 9.26611 17.6769 9.26611H30.1854C31.2424 9.26611 32.1024 8.40607 32.1024 7.34906V6.03101H40.5683C41.1511 6.03101 41.6253 6.50525 41.6253 7.08801V7.84467C40.949 7.70795 40.2568 7.63531 39.5566 7.63531C33.802 7.63531 29.1202 12.3171 29.1202 18.0717C29.1202 23.8262 33.802 28.508 39.5566 28.508C40.2585 28.508 40.9507 28.4375 41.6253 28.3021V53.3002C41.6253 53.883 41.1511 54.3568 40.5683 54.3568H7.29352C6.71075 54.3568 6.23694 53.883 6.23694 53.3002V7.08801C6.23694 6.50525 6.71075 6.03101 7.29352 6.03101H12.755C13.2087 6.03101 13.5766 5.66315 13.5766 5.20941C13.5766 4.75568 13.2087 4.38782 12.755 4.38782H7.29352C5.80499 4.38782 4.59375 5.59906 4.59375 7.08801V53.3002C4.59375 54.7888 5.80499 56 7.29352 56H40.5687C42.0573 56 43.2685 54.7888 43.2685 53.3002V27.827C44.5767 27.3292 45.7833 26.5696 46.8155 25.5703C48.7672 23.6805 49.8938 21.147 49.9869 18.4361C50.0023 17.9828 49.6477 17.6025 49.194 17.5867C48.7437 17.5718 48.3604 17.926 48.3446 18.3797C48.2134 22.1954 45.7042 25.3459 42.2585 26.4453C42.2111 26.4564 42.1649 26.4709 42.1213 26.4901C41.3104 26.7341 40.4495 26.8648 39.5566 26.8648C34.7082 26.8648 30.7634 22.92 30.7634 18.0717C30.7634 13.2233 34.7082 9.2785 39.5566 9.2785C41.4189 9.2785 43.2189 9.86725 44.7122 10.9495L39.0511 16.6109L36.3608 13.9201ZM30.4592 7.34906C30.4592 7.50031 30.3366 7.62292 30.1854 7.62292H17.6769C17.5256 7.62292 17.403 7.50031 17.403 7.34906V3.45044C17.403 2.45367 18.2135 1.64319 19.2103 1.64319H28.652C29.6483 1.64319 30.4592 2.45367 30.4592 3.45044V7.34906ZM48.1314 9.85443C48.3309 9.65448 48.5963 9.54468 48.8782 9.54468C49.1606 9.54468 49.426 9.65491 49.6259 9.85443C50.0378 10.2663 50.0378 10.9371 49.6259 11.3489L39.798 21.1765C39.5984 21.376 39.3331 21.4862 39.0507 21.4862C38.7683 21.4862 38.503 21.376 38.3035 21.1765L33.7037 16.5767C33.5042 16.3772 33.3944 16.1119 33.3944 15.8295C33.3944 15.5471 33.5042 15.2817 33.7042 15.0822C33.9037 14.8827 34.169 14.7725 34.4514 14.7725C34.7334 14.7725 34.9991 14.8827 35.1987 15.0822L38.4701 18.3536C38.791 18.6745 39.3109 18.6745 39.6318 18.3536L48.1314 9.85443Z" fill="black"/>
<path d="M26.954 20.6223H16.9432C16.4895 20.6223 16.1221 20.9902 16.1221 21.4439C16.1221 21.8972 16.4895 22.2651 16.9432 22.2651H26.954C27.4078 22.2651 27.7756 21.8972 27.7756 21.4439C27.7756 20.9902 27.4078 20.6223 26.954 20.6223Z" fill="black"/>
<path d="M15.3754 12.1419H9.84723C9.39349 12.1419 9.02563 12.5098 9.02563 12.9635C9.02563 13.4172 9.39349 13.7851 9.84723 13.7851H15.3754C15.8291 13.7851 16.197 13.4172 16.197 12.9635C16.197 12.5098 15.8291 12.1419 15.3754 12.1419Z" fill="black"/>
<path d="M16.9432 26.0765H26.954C27.4078 26.0765 27.7756 25.7087 27.7756 25.2549C27.7756 24.8016 27.4078 24.4338 26.954 24.4338H16.9432C16.4895 24.4338 16.1221 24.8016 16.1221 25.2549C16.1221 25.7087 16.4895 26.0765 16.9432 26.0765Z" fill="black"/>
<path d="M30.4122 30.5865H16.9432C16.4895 30.5865 16.1221 30.9544 16.1221 31.4081C16.1221 31.8619 16.4895 32.2297 16.9432 32.2297H30.4122C30.8659 32.2297 31.2338 31.8619 31.2338 31.4081C31.2338 30.9544 30.8659 30.5865 30.4122 30.5865Z" fill="black"/>
<path d="M16.9432 36.0412H23.6779C24.1317 36.0412 24.4991 35.6733 24.4991 35.2196C24.4991 34.7659 24.1317 34.398 23.6779 34.398H16.9432C16.4895 34.398 16.1221 34.7659 16.1221 35.2196C16.1221 35.6733 16.4895 36.0412 16.9432 36.0412Z" fill="black"/>
<path d="M16.9432 42.2047H26.954C27.4078 42.2047 27.7756 41.8368 27.7756 41.3831C27.7756 40.9293 27.4078 40.5615 26.954 40.5615H16.9432C16.4895 40.5615 16.1221 40.9293 16.1221 41.3831C16.1221 41.8368 16.4895 42.2047 16.9432 42.2047Z" fill="black"/>
<path d="M16.9432 46.0157H30.4122C30.8659 46.0157 31.2338 45.6478 31.2338 45.1941C31.2338 44.7408 30.8659 44.3729 30.4122 44.3729H16.9432C16.4895 44.3729 16.1221 44.7408 16.1221 45.1941C16.1221 45.6478 16.4895 46.0157 16.9432 46.0157Z" fill="black"/>
<path d="M11.5909 19.9101C9.76099 19.9101 8.27246 21.3986 8.27246 23.2285C8.27246 25.0584 9.76099 26.5469 11.5909 26.5469C13.4208 26.5469 14.9093 25.0584 14.9093 23.2285C14.9093 21.3986 13.4208 19.9101 11.5909 19.9101ZM11.5909 24.9037C10.6672 24.9037 9.91565 24.1522 9.91565 23.2285C9.91565 22.3048 10.6672 21.5533 11.5909 21.5533C12.5146 21.5533 13.2661 22.3048 13.2661 23.2285C13.2661 24.1522 12.5146 24.9037 11.5909 24.9037Z" fill="black"/>
<path d="M11.5909 29.9952C9.76099 29.9952 8.27246 31.4842 8.27246 33.3137C8.27246 35.1436 9.76099 36.6321 11.5909 36.6321C13.4208 36.6321 14.9093 35.1436 14.9093 33.3137C14.9093 31.4842 13.4208 29.9952 11.5909 29.9952ZM11.5909 34.9893C10.6672 34.9893 9.91565 34.2378 9.91565 33.3141C9.91565 32.39 10.6672 31.6384 11.5909 31.6384C12.5146 31.6384 13.2661 32.39 13.2661 33.3141C13.2661 34.2378 12.5146 34.9893 11.5909 34.9893Z" fill="black"/>
<path d="M11.5909 39.9702C9.76099 39.9702 8.27246 41.4587 8.27246 43.2886C8.27246 45.1185 9.76099 46.607 11.5909 46.607C13.4208 46.607 14.9093 45.1185 14.9093 43.2886C14.9093 41.4587 13.4208 39.9702 11.5909 39.9702ZM11.5909 44.9638C10.6672 44.9638 9.91565 44.2123 9.91565 43.2886C9.91565 42.3649 10.6672 41.6133 11.5909 41.6133C12.5146 41.6133 13.2661 42.3649 13.2661 43.2886C13.2661 44.2123 12.5146 44.9638 11.5909 44.9638Z" fill="black"/>
</g>
</svg>
