<svg width="56" height="56" viewBox="0 0 56 56" fill="none" xmlns="http://www.w3.org/2000/svg">
<g opacity="0.4">
<path d="M29.0938 44.4062C29.0938 45.0104 28.6041 45.5 28 45.5C27.3959 45.5 26.9062 45.0104 26.9062 44.4062C26.9062 43.8021 27.3959 43.3125 28 43.3125C28.6041 43.3125 29.0938 43.8021 29.0938 44.4062Z" fill="black"/>
<path d="M52.3906 34.5625C52.3906 30.9437 49.4469 28 45.8281 28C42.2094 28 39.2656 30.9437 39.2656 34.5625C39.2656 38.1813 42.2094 41.125 45.8281 41.125C49.4469 41.125 52.3906 38.1813 52.3906 34.5625ZM45.8281 38.9375C43.4159 38.9375 41.4531 36.9747 41.4531 34.5625C41.4531 32.1503 43.4159 30.1875 45.8281 30.1875C48.2404 30.1875 50.2031 32.1503 50.2031 34.5625C50.2031 36.9747 48.2404 38.9375 45.8281 38.9375Z" fill="black"/>
<path d="M45.8281 41.125C43.072 41.125 40.3235 42.2692 38.4513 44.1243C35.9869 40.8857 32.187 38.9375 28 38.9375C23.9903 38.9375 20.1049 40.767 17.5491 44.1243C15.6765 42.2696 12.9285 41.125 10.1719 41.125C4.65826 41.125 0 45.6329 0 50.9688V53.1562C0 53.7604 0.489624 54.25 1.09375 54.25H54.9062C55.5104 54.25 56 53.7604 56 53.1562V50.9688C56 45.6329 51.3417 41.125 45.8281 41.125ZM2.1875 50.9688C2.1875 46.8185 5.84387 43.3125 10.1719 43.3125C12.5401 43.3125 14.8887 44.3618 16.3426 46.0298C15.3813 47.8866 14.875 49.9562 14.875 52.0625H2.1875V50.9688ZM28 41.125C34.0861 41.125 38.9375 46.0631 38.9375 52.0625H17.0625C17.0625 45.9832 22.013 41.125 28 41.125ZM53.8125 52.0625H41.125C41.125 49.9562 40.6187 47.8866 39.6574 46.0298C41.1113 44.3618 43.4599 43.3125 45.8281 43.3125C50.1561 43.3125 53.8125 46.8185 53.8125 50.9688V52.0625Z" fill="black"/>
<path d="M16.7344 34.5625C16.7344 30.9437 13.7906 28 10.1719 28C6.5531 28 3.60938 30.9437 3.60938 34.5625C3.60938 38.1813 6.5531 41.125 10.1719 41.125C13.7906 41.125 16.7344 38.1813 16.7344 34.5625ZM10.1719 38.9375C7.75964 38.9375 5.79688 36.9747 5.79688 34.5625C5.79688 32.1503 7.75964 30.1875 10.1719 30.1875C12.5841 30.1875 14.5469 32.1503 14.5469 34.5625C14.5469 36.9747 12.5841 38.9375 10.1719 38.9375Z" fill="black"/>
<path d="M36.75 30.1875C36.75 25.3626 32.8249 21.4375 28 21.4375C23.1751 21.4375 19.25 25.3626 19.25 30.1875C19.25 35.0124 23.1751 38.9375 28 38.9375C32.8249 38.9375 36.75 35.0124 36.75 30.1875ZM28 36.75C24.3812 36.75 21.4375 33.8063 21.4375 30.1875C21.4375 26.5687 24.3812 23.625 28 23.625C31.6188 23.625 34.5625 26.5687 34.5625 30.1875C34.5625 33.8063 31.6188 36.75 28 36.75Z" fill="black"/>
<path d="M36.6561 8.11127C36.5275 7.71521 36.1853 7.42682 35.773 7.367L31.0553 6.68213L28.943 2.36353C28.7597 1.98798 28.3786 1.75 27.9608 1.75C27.5429 1.75 27.1618 1.98798 26.9781 2.3631L24.8662 6.68213L20.1486 7.36658C19.7363 7.42639 19.3941 7.71521 19.2655 8.11127C19.1369 8.50732 19.2441 8.94183 19.5423 9.23236L22.9586 12.5619L22.1524 17.2637C22.0819 17.6739 22.2506 18.0887 22.5877 18.3331C22.9227 18.5767 23.3687 18.6113 23.7396 18.4164L27.9608 16.1969L32.1837 18.4164C32.552 18.6104 32.9984 18.5779 33.3355 18.3331C33.6722 18.0883 33.841 17.6739 33.7705 17.2633L32.9634 12.5619L36.3792 9.23236C36.6774 8.94183 36.7847 8.50732 36.6561 8.11127ZM31.0241 11.3968C30.7665 11.648 30.6486 12.0103 30.7097 12.3649L31.239 15.4492L28.4696 13.9932C28.1509 13.8257 27.7702 13.8257 27.4515 13.9932L24.6829 15.4492L25.2119 12.3649C25.2725 12.0099 25.1546 11.648 24.897 11.3968L22.6565 9.21313L25.7519 8.76367C26.1099 8.71198 26.4188 8.48639 26.5773 8.16168L27.9608 5.33331L29.3438 8.16168C29.5027 8.48682 29.8116 8.71198 30.1692 8.76367L33.265 9.21313L31.0241 11.3968Z" fill="black"/>
<path d="M53.0041 16.3088C52.8755 15.9128 52.5332 15.6244 52.121 15.5646L48.9247 15.1002L47.4956 12.2034C47.3114 11.83 46.9316 11.5938 46.5151 11.5938C46.5151 11.5938 46.5151 11.5938 46.5146 11.5938C46.0985 11.5938 45.7182 11.83 45.5341 12.2034L44.1041 15.1002L40.9074 15.5646C40.4956 15.6244 40.1534 15.9128 40.0248 16.3088C39.8957 16.7049 40.003 17.1394 40.3012 17.4299L42.6139 19.6854L42.0678 22.8683C41.9978 23.2785 42.1661 23.6929 42.5032 23.9377C42.8399 24.1826 43.2864 24.215 43.6546 24.0215L46.5146 22.5189L49.3738 24.0215C49.742 24.215 50.1889 24.1826 50.5256 23.9377C50.8623 23.6934 51.0306 23.2785 50.9606 22.8683L50.4145 19.6854L52.7276 17.4299C53.0259 17.1394 53.1327 16.7049 53.0041 16.3088ZM48.4761 18.5207C48.2181 18.7719 48.1006 19.1338 48.1617 19.4884L48.43 21.0538L47.0239 20.3151C46.7052 20.1476 46.3245 20.1476 46.0062 20.3151L44.5989 21.0543L44.8676 19.4884C44.9283 19.1338 44.8108 18.7719 44.5531 18.5207L43.415 17.4107L44.9876 17.1826C45.344 17.1309 45.652 16.907 45.8114 16.5844L46.5146 15.1595L47.2174 16.584C47.3768 16.907 47.6849 17.1309 48.0412 17.1826L49.6139 17.4107L48.4761 18.5207Z" fill="black"/>
<path d="M15.8166 16.3088C15.688 15.9128 15.3457 15.6244 14.9335 15.5646L11.7372 15.1002L10.3081 12.2034C10.1239 11.83 9.74412 11.5938 9.32755 11.5938C8.91099 11.5938 8.53074 11.83 8.3466 12.2034L6.9166 15.1002L3.71995 15.5646C3.30808 15.6244 2.96586 15.9128 2.83726 16.3088C2.70823 16.7049 2.81547 17.1394 3.11368 17.4299L5.42637 19.6854L4.88077 22.8683C4.81028 23.2785 4.97904 23.6929 5.31571 23.9377C5.65238 24.1826 6.09885 24.215 6.46757 24.0215L9.32713 22.5189L12.1863 24.0215C12.5571 24.2163 13.0032 24.1813 13.3381 23.9377C13.6748 23.6934 13.8435 23.2785 13.7731 22.8683L13.227 19.6854L15.5401 17.4299C15.8384 17.1394 15.9452 16.7049 15.8166 16.3088ZM11.2882 18.5207C11.0306 18.7719 10.9131 19.1338 10.9737 19.4884L11.2425 21.0538L9.83598 20.3151C9.51768 20.1476 9.137 20.1476 8.8187 20.3151L7.41093 21.0543L7.67966 19.4884C7.74076 19.1338 7.62284 18.7719 7.36521 18.5207L6.22703 17.4107L7.80015 17.1826C8.15604 17.1309 8.46409 16.907 8.62345 16.5844L9.3267 15.1595L10.0295 16.584C10.1889 16.907 10.4969 17.1309 10.8532 17.1826L12.4259 17.4107L11.2882 18.5207Z" fill="black"/>
<path d="M32.7929 44.7446C32.2879 44.4126 31.6098 44.5532 31.2783 45.0582C30.9463 45.5628 31.0869 46.2408 31.5919 46.5728C32.6032 47.2372 33.4115 48.1634 33.9294 49.2512C34.1883 49.7959 34.8402 50.0288 35.3867 49.7686C35.9323 49.5092 36.1639 48.8564 35.9045 48.3112C35.2149 46.862 34.1387 45.6286 32.7929 44.7446Z" fill="black"/>
</g>
</svg>
