<svg width="32" height="32" viewBox="0 0 32 32" fill="none" xmlns="http://www.w3.org/2000/svg">
<path d="M6.59998 19.2401C5.94 20.9001 4.90002 22.5401 3.51001 24.1202C3.07001 24.6202 3.01001 25.3401 3.37 25.9001C3.65003 26.3401 4.10999 26.5801 4.60999 26.5801C4.75 26.5801 4.89002 26.5702 5.03003 26.5201C7.96997 25.6601 14.84 22.6101 15.03 12.8301C15.1 9.06014 12.34 5.82015 8.75 5.45015C6.76001 5.25014 4.78003 5.9001 3.31 7.22011C1.84003 8.55013 1 10.4502 1 12.4301C1 15.7301 3.34003 18.6202 6.59998 19.2401Z" fill="#26948A"/>
<path d="M24.71 5.45015C22.73 5.25014 20.75 5.9001 19.28 7.22011C17.81 8.55013 16.97 10.4501 16.97 12.4301C16.97 15.7301 19.31 18.6201 22.57 19.2401C21.91 20.9001 20.87 22.5401 19.48 24.1201C19.04 24.6201 18.98 25.3401 19.34 25.9001C19.62 26.3401 20.08 26.5801 20.58 26.5801C20.72 26.5801 20.86 26.5701 21 26.5201C23.94 25.6601 30.81 22.6101 31 12.8301V12.6901C31 8.98011 28.27 5.82015 24.71 5.45015Z" fill="#26948A"/>
</svg>
