<svg width="24" height="24" viewBox="0 0 24 24" fill="none" xmlns="http://www.w3.org/2000/svg">
<path d="M23.9823 5.17009C23.9823 5.14267 24.0011 5.11598 23.9999 5.08887L16.6759 12.1459L23.9911 18.9775C23.9954 18.9287 23.9823 18.8795 23.9823 18.8297V5.17009Z" fill="white"/>
<path d="M15.558 13.2319L12.5681 16.1086C12.4168 16.2541 12.2214 16.3271 12.0259 16.3271C11.8345 16.3271 11.643 16.2572 11.4928 16.1172L8.51105 13.3387L1.14807 20.4358C1.3271 20.5001 1.51928 20.5501 1.72052 20.5501H22.3314C22.6303 20.5501 22.9105 20.459 23.1542 20.3233L15.558 13.2319Z" fill="white"/>
<path d="M12.0173 14.4682L23.1947 3.7011C22.9416 3.55064 22.6471 3.44971 22.3313 3.44971H1.72045C1.30931 3.44971 0.932578 3.60935 0.63916 3.85282L12.0173 14.4682Z" fill="white"/>
<path d="M0 5.43237V18.8295C0 18.9833 0.0353478 19.1316 0.0737194 19.2733L7.34535 12.2709L0 5.43237Z" fill="white"/>
</svg>
