<svg width="24" height="24" viewBox="0 0 24 24" fill="none" xmlns="http://www.w3.org/2000/svg">
<path d="M12 24C18.6274 24 24 18.6274 24 12C24 5.37258 18.6274 0 12 0C5.37258 0 0 5.37258 0 12C0 18.6274 5.37258 24 12 24Z" fill="#3A559F"/>
<path d="M15.8018 10.5791L15.5605 12.6695C15.5504 12.7649 15.5057 12.8533 15.4349 12.9179C15.364 12.9825 15.2718 13.0188 15.1759 13.02H12.9941L12.9832 19.2177C12.9839 19.2912 12.9557 19.3619 12.9047 19.4148C12.8537 19.4676 12.7839 19.4982 12.7105 19.5H10.5C10.4633 19.5 10.4269 19.4926 10.3931 19.4782C10.3592 19.4639 10.3287 19.4428 10.3032 19.4163C10.2777 19.3898 10.2579 19.3584 10.2448 19.3241C10.2318 19.2897 10.2258 19.2531 10.2273 19.2164V13.02H8.59093C8.53953 13.0195 8.48874 13.0088 8.44147 12.9886C8.39419 12.9685 8.35135 12.9392 8.31538 12.9025C8.27942 12.8658 8.25104 12.8223 8.23187 12.7746C8.2127 12.7269 8.20311 12.6759 8.20365 12.6245L8.19547 10.5341C8.19475 10.4825 8.2042 10.4313 8.22327 10.3834C8.24234 10.3355 8.27067 10.2918 8.30663 10.2548C8.34259 10.2178 8.38549 10.1883 8.43286 10.1679C8.48024 10.1475 8.53117 10.1366 8.58275 10.1359H10.2273V8.11773C10.2273 5.775 11.6182 4.5 13.6582 4.5H15.33C15.3817 4.50053 15.4328 4.51127 15.4803 4.53158C15.5278 4.5519 15.5709 4.5814 15.607 4.6184C15.6431 4.65539 15.6716 4.69915 15.6907 4.74716C15.7099 4.79517 15.7194 4.84649 15.7186 4.89818V6.65727C15.7194 6.70896 15.7099 6.76028 15.6907 6.80829C15.6716 6.85631 15.6431 6.90006 15.607 6.93706C15.5709 6.97405 15.5278 7.00355 15.4803 7.02387C15.4328 7.04419 15.3817 7.05492 15.33 7.05545H14.3046C13.1959 7.05545 12.9805 7.60091 12.9805 8.38909V10.1359H15.4173C15.4727 10.1366 15.5273 10.149 15.5776 10.1723C15.6279 10.1957 15.6727 10.2294 15.709 10.2712C15.7453 10.3131 15.7724 10.3622 15.7884 10.4152C15.8044 10.4683 15.8089 10.5241 15.8018 10.5791Z" fill="white"/>
</svg>
