<svg width="40" height="40" viewBox="0 0 40 40" fill="none" xmlns="http://www.w3.org/2000/svg">
<g clip-path="url(#clip0_326_1170)">
<path d="M23.6195 32.0133C23.2887 32.0133 22.9877 31.7978 22.8807 31.4849C22.7737 31.1719 22.8798 30.8134 23.1437 30.6124C23.3967 30.4196 23.7473 30.4005 24.0206 30.5627C24.3023 30.7298 24.4514 31.0701 24.3841 31.3906C24.309 31.7482 23.9858 32.0133 23.6195 32.0133Z" fill="#26948A"/>
<path d="M36.7375 10.0841L26.2787 4.50463C26.0489 4.38205 25.7731 4.38205 25.5432 4.50463L24.4003 5.11432V2.01213C24.4003 1.58064 24.0506 1.23088 23.6191 1.23088H15.2925L14.1593 0.202676C13.8617 -0.0674023 13.4077 -0.0675585 13.1099 0.202207L11.974 1.23088H3.63025C3.19876 1.23088 2.849 1.58064 2.849 2.01213V10.6222V10.6252V39.2188C2.849 39.6502 3.19876 40 3.63025 40H36.3698C36.8013 40 37.151 39.6502 37.151 39.2188V10.7734C37.151 10.4849 36.992 10.2199 36.7375 10.0841ZM27.4216 17.4084H24.4004V14.7551H27.4216V17.4084ZM27.4216 25.3217H24.4004V22.6685H27.4216V25.3217ZM4.4115 16.5939H22.8378V20.121H4.4115V16.5939ZM16.0449 15.0314H11.2045V10.5853C11.2045 9.2508 12.2902 8.1651 13.6246 8.1651C14.9592 8.1651 16.0449 9.2508 16.0449 10.5853V15.0314ZM22.8378 2.79338V8.07713L17.0145 2.79338H22.8378ZM13.6338 1.83572L22.8378 10.187V15.0314H17.6074V10.5853C17.6074 8.38924 15.8207 6.6026 13.6246 6.6026C11.4285 6.6026 9.64197 8.38924 9.64197 10.5853V15.0314H4.4115V10.1875L13.6338 1.83572ZM10.2486 2.79338L4.41142 8.07955V2.79338H10.2486ZM11.0278 38.4375V32.9927H16.2215V38.4375H11.0278ZM35.5885 38.4375H24.4003V34.7495C24.4003 34.3181 24.0506 33.9683 23.6191 33.9683C23.1876 33.9683 22.8378 34.3181 22.8378 34.7495V38.4375H17.784V32.2114C17.784 31.7799 17.4342 31.4302 17.0027 31.4302H10.2466C9.81509 31.4302 9.46532 31.7799 9.46532 32.2114V38.4375H4.4115V21.6835H22.8378V27.686C22.8378 28.1175 23.1876 28.4673 23.6191 28.4673C24.0506 28.4673 24.4003 28.1175 24.4003 27.686V26.8842H32.7866C33.2181 26.8842 33.5679 26.5344 33.5679 26.1029V21.8871C33.5679 21.4556 33.2181 21.1059 32.7866 21.1059H24.4003V18.9708H32.7866C33.2181 18.9708 33.5679 18.621 33.5679 18.1895V13.9738C33.5679 13.5423 33.2181 13.1925 32.7866 13.1925H24.4003V6.88525L25.9109 6.07932L35.5885 11.242V38.4375ZM32.0054 22.6685V25.3217H28.9841V22.6685H32.0054ZM32.0054 14.7551V17.4084H28.9841V14.7551H32.0054Z" fill="#26948A"/>
<path d="M11.3479 29.518H7.18176C6.75028 29.518 6.40051 29.1682 6.40051 28.7367V24.1676C6.40051 23.7361 6.75028 23.3864 7.18176 23.3864H11.3479C11.7794 23.3864 12.1292 23.7361 12.1292 24.1676V28.7367C12.1292 29.1682 11.7794 29.518 11.3479 29.518ZM7.96301 27.9555H10.5667V24.9489H7.96301V27.9555Z" fill="#26948A"/>
<path d="M20.0675 29.518H15.9012C15.4698 29.518 15.12 29.1682 15.12 28.7367V24.1676C15.12 23.7361 15.4698 23.3864 15.9012 23.3864H20.0675C20.499 23.3864 20.8487 23.7361 20.8487 24.1676V28.7367C20.8487 29.1682 20.499 29.518 20.0675 29.518ZM16.6825 27.9555H19.2862V24.9489H16.6825V27.9555Z" fill="#26948A"/>
</g>
<defs>
<clipPath id="clip0_326_1170">
<rect width="40" height="40" fill="white"/>
</clipPath>
</defs>
</svg>
