<svg width="24" height="24" viewBox="0 0 24 24" fill="none" xmlns="http://www.w3.org/2000/svg">
<path d="M20.1424 18.7302L16.8993 15.4871C17.8822 14.2004 18.4213 12.6398 18.4215 10.9929C18.4215 9.0083 17.6486 7.14233 16.245 5.73901C14.8417 4.33569 12.9759 3.56274 10.9911 3.56274C9.00647 3.56274 7.1405 4.33569 5.73718 5.73901C2.84021 8.63623 2.84021 13.3501 5.73718 16.2468C7.1405 17.6504 9.00647 18.4233 10.9911 18.4233C12.6379 18.4231 14.1986 17.8841 15.4853 16.9012L18.7284 20.1443C18.9235 20.3396 19.1796 20.4372 19.4354 20.4372C19.6913 20.4372 19.9474 20.3396 20.1424 20.1443C20.5331 19.7539 20.5331 19.1206 20.1424 18.7302ZM7.15124 14.8328C5.03406 12.7156 5.0343 9.2705 7.15124 7.15307C8.17688 6.12768 9.54065 5.56274 10.9911 5.56274C12.4418 5.56274 13.8053 6.12768 14.8309 7.15307C15.8566 8.17871 16.4215 9.54248 16.4215 10.9929C16.4215 12.4436 15.8566 13.8071 14.8309 14.8328C13.8053 15.8584 12.4418 16.4233 10.9911 16.4233C9.54065 16.4233 8.17688 15.8584 7.15124 14.8328Z" fill="#26948A"/>
</svg>
