<svg width="40" height="40" viewBox="0 0 40 40" fill="none" xmlns="http://www.w3.org/2000/svg">
<path d="M34.14 5.85572C26.3284 -1.95358 13.665 -1.9517 5.85573 5.86001C-1.95356 13.6717 -1.95169 26.335 5.86003 34.1443C13.6717 41.9536 26.335 41.9517 34.1443 34.14C37.8948 30.3884 40.0012 25.3005 40 19.9957C39.9989 14.6918 37.891 9.60556 34.14 5.85572ZM30.2893 27.8598C30.2885 27.8606 30.2876 27.8616 30.2867 27.8624V27.8558L29.2733 28.8624C27.9628 30.1895 26.0541 30.7355 24.2399 30.3024C22.4122 29.8132 20.6747 29.0345 19.0933 27.9958C17.6241 27.0568 16.2625 25.9591 15.0333 24.7224C13.9023 23.5997 12.8862 22.3669 11.9999 21.0424C11.0306 19.6173 10.2633 18.0648 9.71995 16.4291C9.09706 14.5075 9.61323 12.399 11.0533 10.9824L12.2399 9.79579C12.5699 9.46439 13.106 9.46321 13.4373 9.79313C13.4382 9.79399 13.4391 9.79485 13.4399 9.79579L17.1866 13.5424C17.518 13.8724 17.5192 14.4084 17.1892 14.7398C17.1884 14.7406 17.1875 14.7415 17.1866 14.7424L14.9866 16.9424C14.3553 17.5668 14.276 18.559 14.7999 19.2758C15.5956 20.3678 16.4762 21.3954 17.4333 22.3491C18.5004 23.4209 19.6605 24.3958 20.8999 25.2625C21.6161 25.762 22.5871 25.6778 23.2066 25.0625L25.3332 22.9025C25.6631 22.5711 26.1992 22.5699 26.5306 22.8998C26.5314 22.9007 26.5323 22.9016 26.5332 22.9025L30.2866 26.6625C30.6181 26.9923 30.6192 27.5284 30.2893 27.8598Z" fill="#26948A"/>
</svg>
