<svg width="40" height="40" viewBox="0 0 40 40" fill="none" xmlns="http://www.w3.org/2000/svg">
<path d="M19.999 4.68672C19.3518 4.68672 18.8271 5.21141 18.8271 5.8586C18.8271 6.50578 19.3518 7.03047 19.999 7.03047C23.8767 7.03047 27.0314 10.1847 27.0314 14.0617C27.0314 14.7089 27.5561 15.2336 28.2033 15.2336C28.8505 15.2336 29.3752 14.7089 29.3752 14.0617C29.3752 8.89235 25.1691 4.68672 19.999 4.68672Z" fill="#26948A"/>
<path d="M16.9795 0.314851C11.685 1.42118 7.39202 5.67306 6.26241 11.0005C5.30858 15.4991 6.48397 20.0155 9.48718 23.3917C10.9552 25.0419 11.7971 27.2202 11.7971 29.3742V31.718C11.7971 33.2774 12.818 34.6021 14.2262 35.061C14.6894 37.7973 17.0644 39.9992 20.0002 39.9992C22.9353 39.9992 25.3109 37.798 25.7742 35.061C27.1825 34.6021 28.2034 33.2774 28.2034 31.7179V29.3742C28.2034 27.216 29.048 25.0638 30.5816 23.3141C32.8265 20.7531 34.0627 17.4672 34.0627 14.0617C34.0627 5.18946 25.9417 -1.55749 16.9795 0.314851ZM20.0002 37.6555C18.4938 37.6555 17.173 36.6189 16.6853 35.2258H23.3151C22.8274 36.6189 21.5066 37.6555 20.0002 37.6555ZM25.8596 31.718C25.8596 32.3642 25.3339 32.8899 24.6877 32.8899H15.3127C14.6666 32.8899 14.1409 32.3642 14.1409 31.718V30.5461H25.8596V31.718ZM28.8191 21.7693C27.1848 23.6339 26.1792 25.8824 25.9241 28.2024H14.0766C13.8218 25.8811 12.8188 23.6106 11.2385 21.8339C8.73554 19.0202 7.75749 15.2487 8.55523 11.4867C9.4864 7.09493 13.0645 3.52735 17.459 2.60915C24.9609 1.04141 31.719 6.67517 31.719 14.0617C31.719 16.8986 30.6891 19.6359 28.8191 21.7693Z" fill="#26948A"/>
<path d="M3.51562 14.0617H1.17188C0.524687 14.0617 0 14.5864 0 15.2336C0 15.8808 0.524687 16.4055 1.17188 16.4055H3.51562C4.16281 16.4055 4.6875 15.8808 4.6875 15.2336C4.6875 14.5864 4.16281 14.0617 3.51562 14.0617Z" fill="#26948A"/>
<path d="M4.00103 8.20235L2.34377 6.54509C1.88619 6.08743 1.14416 6.08743 0.686504 6.54509C0.228848 7.00274 0.228848 7.74469 0.686504 8.20235L2.34377 9.85962C2.80135 10.3173 3.54338 10.3174 4.00103 9.85962C4.45869 9.40196 4.45869 8.66001 4.00103 8.20235Z" fill="#26948A"/>
<path d="M4.00103 20.6076C3.54338 20.1499 2.80135 20.1499 2.34377 20.6076L0.686504 22.2648C0.228848 22.7225 0.228848 23.4645 0.686504 23.9221C1.14408 24.3798 1.88611 24.3798 2.34377 23.9221L4.00103 22.2648C4.45869 21.8072 4.45869 21.0652 4.00103 20.6076Z" fill="#26948A"/>
<path d="M38.8281 14.0617H36.4844C35.8372 14.0617 35.3125 14.5864 35.3125 15.2336C35.3125 15.8808 35.8372 16.4055 36.4844 16.4055H38.8281C39.4753 16.4055 40 15.8808 40 15.2336C40 14.5864 39.4753 14.0617 38.8281 14.0617Z" fill="#26948A"/>
<path d="M39.3135 6.54509C38.856 6.08743 38.1139 6.08743 37.6563 6.54509L35.999 8.20235C35.5413 8.66 35.5413 9.40196 35.999 9.85961C36.4566 10.3172 37.1986 10.3173 37.6563 9.85961L39.3135 8.20235C39.7712 7.74469 39.7712 7.00274 39.3135 6.54509Z" fill="#26948A"/>
<path d="M39.3135 22.2649L37.6563 20.6076C37.1987 20.1499 36.4567 20.1499 35.999 20.6076C35.5413 21.0652 35.5413 21.8072 35.999 22.2649L37.6563 23.9221C38.1139 24.3797 38.8559 24.3798 39.3135 23.9221C39.7712 23.4645 39.7712 22.7225 39.3135 22.2649Z" fill="#26948A"/>
</svg>
