<svg width="40" height="40" viewBox="0 0 40 40" fill="none" xmlns="http://www.w3.org/2000/svg">
<g clip-path="url(#clip0_181_1099)">
<path d="M20 14.2187C20.6472 14.2187 21.1719 13.694 21.1719 13.0468C21.1719 12.3996 20.6472 11.8749 20 11.8749C19.3528 11.8749 18.8281 12.3996 18.8281 13.0468C18.8281 13.694 19.3528 14.2187 20 14.2187Z" fill="#26948A"/>
<path d="M34.0624 28.2811H31.621L25.5493 14.9234C25.7493 14.3337 25.8593 13.703 25.8593 13.0468C25.8593 11.134 24.9378 9.4326 23.5156 8.36253V3.5156C23.5156 1.5771 21.9385 0 20 0C18.0615 0 16.4844 1.5771 16.4844 3.5156V8.36253C15.0622 9.4326 14.1407 11.134 14.1407 13.0468C14.1407 13.703 14.2507 14.3337 14.4507 14.9234L8.37897 28.2811H5.93749C5.29031 28.2811 4.76562 28.8058 4.76562 29.453C4.76562 30.1001 5.29031 30.6248 5.93749 30.6248H7.31358L7.03929 31.2283C5.56781 34.4655 6.91796 38.2847 10.1008 39.8761C10.6944 40.1729 11.4169 39.9175 11.6917 39.3129L15.641 30.6248H18.8281V31.7967C18.8281 32.4439 19.3528 32.9686 20 32.9686C20.6472 32.9686 21.1719 32.4439 21.1719 31.7967V30.6248H24.359L28.3082 39.3128C28.583 39.9175 29.3059 40.1726 29.899 39.876C33.0797 38.2857 34.4331 34.4677 32.9606 31.2282L32.6863 30.6248H34.0624C34.7096 30.6248 35.2343 30.1001 35.2343 29.453C35.2343 28.8058 34.7096 28.2811 34.0624 28.2811ZM18.8281 3.5156C18.8281 2.86944 19.3538 2.34374 20 2.34374C20.6462 2.34374 21.1719 2.86944 21.1719 3.5156V7.30535C20.7931 7.22816 20.4012 7.18746 20 7.18746C19.5988 7.18746 19.2069 7.22816 18.8281 7.30535V3.5156ZM20 9.53119C21.9385 9.53119 23.5156 11.1083 23.5156 13.0468C23.5156 14.9853 21.9385 16.5624 20 16.5624C18.0615 16.5624 16.4844 14.9853 16.4844 13.0468C16.4844 11.1083 18.0614 9.53119 20 9.53119ZM10.1342 37.0757C8.82889 35.8567 8.3949 33.91 9.17302 32.1981L9.88818 30.6248H13.0664L10.1342 37.0757ZM14.1317 28.2811H10.9534L15.9543 17.2792C16.655 17.9493 17.5206 18.4479 18.4841 18.7062L14.1317 28.2811ZM21.1719 28.2811V27.1092C21.1719 26.462 20.6472 25.9373 20 25.9373C19.3528 25.9373 18.8281 26.462 18.8281 27.1092V28.2811H16.7063L20 21.035L23.2937 28.2811H21.1719ZM21.5159 18.7061C22.4794 18.4478 23.3449 17.9493 24.0457 17.2791L29.0464 28.2811H25.8681L21.5159 18.7061ZM29.8657 37.0757L26.9336 30.6248H30.1118L30.827 32.1981C31.605 33.91 31.171 35.8567 29.8657 37.0757Z" fill="#26948A"/>
</g>
<defs>
<clipPath id="clip0_181_1099">
<rect width="40" height="40" fill="white"/>
</clipPath>
</defs>
</svg>
