<svg width="32" height="32" viewBox="0 0 32 32" fill="none" xmlns="http://www.w3.org/2000/svg">
<path d="M16 32C24.8366 32 32 24.8366 32 16C32 7.16344 24.8366 0 16 0C7.16344 0 0 7.16344 0 16C0 24.8366 7.16344 32 16 32Z" fill="#0084FF"/>
<path d="M26 15.6236C26 20.7382 21.5218 24.8836 16 24.8836C15.0306 24.8843 14.0655 24.754 13.1309 24.4964L9.72545 26.3636V22.8327C7.45455 21.1364 6 18.5455 6 15.6236C6 10.5091 10.4782 6.36363 16 6.36363C21.5218 6.36363 26 10.5109 26 15.6236Z" fill="white"/>
<path d="M22.4603 13.0309L16.9931 18.8309L14.4476 16.1164L9.47852 18.8327L14.9458 13.0309L17.5549 15.7454L22.4603 13.0309Z" fill="#2196F3"/>
</svg>
