<svg width="32" height="32" viewBox="0 0 32 32" fill="none" xmlns="http://www.w3.org/2000/svg">
<path d="M16 32C24.8366 32 32 24.8366 32 16C32 7.16344 24.8366 0 16 0C7.16344 0 0 7.16344 0 16C0 24.8366 7.16344 32 16 32Z" fill="#50ABF1"/>
<path d="M25.9618 9.94727C25.4871 10.6564 24.9092 11.2906 24.2472 11.8291C24.1614 11.8974 24.0921 11.9842 24.0445 12.0831C23.997 12.1819 23.9724 12.2903 23.9727 12.4V12.4673C23.9651 13.8962 23.7028 15.3123 23.1981 16.6491C22.6782 18.0502 21.9061 19.3443 20.9199 20.4673C19.6007 21.9712 17.9014 23.0927 15.9999 23.7145C14.747 24.1211 13.4372 24.3249 12.1199 24.3182C10.0339 24.316 7.98536 23.7628 6.18177 22.7145C6.11718 22.6778 6.0664 22.621 6.03718 22.5527C6.00796 22.4844 6.00191 22.4084 6.01995 22.3363C6.03824 22.2651 6.07987 22.202 6.1382 22.1572C6.19654 22.1124 6.26821 22.0884 6.34177 22.0891H6.83995C8.42558 22.0888 9.97493 21.6146 11.289 20.7273C10.5057 20.5992 9.77271 20.258 9.17042 19.741C8.56813 19.224 8.11978 18.5512 7.87449 17.7964C7.86246 17.7591 7.86031 17.7194 7.86827 17.6811C7.87622 17.6428 7.894 17.6073 7.91986 17.5779C7.94572 17.5486 7.97877 17.5265 8.01577 17.5138C8.05276 17.501 8.09242 17.4982 8.13086 17.5054C8.37061 17.551 8.61408 17.5742 8.85813 17.5745H8.94904C8.18978 17.2257 7.54787 16.6643 7.10097 15.9583C6.65406 15.2523 6.42131 14.4319 6.43086 13.5964C6.43138 13.5572 6.44202 13.5188 6.46177 13.4849C6.48151 13.451 6.50967 13.4228 6.54353 13.4031C6.57738 13.3833 6.61577 13.3727 6.65497 13.3721C6.69416 13.3716 6.73283 13.3812 6.76722 13.4C7.07528 13.572 7.4057 13.7005 7.74904 13.7818C7.06913 13.1096 6.63153 12.2308 6.50485 11.2832C6.37817 10.3355 6.56957 9.37261 7.04904 8.54545C7.06743 8.51497 7.09278 8.48927 7.12302 8.47047C7.15325 8.45167 7.1875 8.4403 7.22298 8.43729C7.25845 8.43427 7.29413 8.4397 7.32711 8.45313C7.36008 8.46655 7.3894 8.4876 7.41268 8.51454C8.36492 9.69168 9.54396 10.6655 10.8798 11.3783C12.2156 12.091 13.681 12.5281 15.189 12.6636H15.2054C15.2277 12.6629 15.2497 12.6577 15.27 12.6483C15.2903 12.639 15.3085 12.6256 15.3236 12.6091C15.3381 12.5925 15.3489 12.5732 15.3555 12.5522C15.3621 12.5312 15.3642 12.5091 15.3618 12.4873C15.3055 11.9592 15.3399 11.4255 15.4636 10.9091C15.572 10.457 15.7564 10.0266 16.009 9.63636C16.5392 8.80367 17.3468 8.18538 18.289 7.8909C18.731 7.75234 19.1913 7.68124 19.6545 7.67999C20.7048 7.67896 21.7193 8.06175 22.5072 8.75636C22.6076 8.84557 22.7366 8.89588 22.8708 8.89818C22.9151 8.89744 22.959 8.89134 23.0018 8.87999C23.7424 8.69261 24.4522 8.39928 25.109 8.00909C25.1486 7.98624 25.1941 7.97584 25.2396 7.97924C25.2852 7.98263 25.3286 7.99967 25.3643 8.02812C25.4001 8.05658 25.4264 8.09513 25.4399 8.13876C25.4533 8.18239 25.4534 8.22907 25.4399 8.27272C25.2195 8.96087 24.8294 9.58242 24.3054 10.08C24.778 9.96711 25.2393 9.81132 25.6836 9.61454C25.7284 9.59458 25.7784 9.58977 25.8262 9.60084C25.874 9.61191 25.9168 9.63825 25.9483 9.67587C25.9798 9.71349 25.9981 9.76033 26.0005 9.80931C26.0029 9.85829 25.9893 9.90672 25.9618 9.94727Z" fill="white"/>
</svg>
