<svg width="32" height="32" viewBox="0 0 32 32" fill="none" xmlns="http://www.w3.org/2000/svg">
<path d="M16 32C24.8366 32 32 24.8366 32 16C32 7.16344 24.8366 0 16 0C7.16344 0 0 7.16344 0 16C0 24.8366 7.16344 32 16 32Z" fill="#3A559F"/>
<path d="M21.0686 14.1055L20.7468 16.8927C20.7334 17.0199 20.6738 17.1378 20.5793 17.2239C20.4848 17.31 20.3619 17.3585 20.2341 17.36H17.325L17.3104 25.6236C17.3114 25.7215 17.2738 25.8159 17.2058 25.8864C17.1377 25.9568 17.0447 25.9976 16.9468 26H13.9995C13.9505 26 13.902 25.9902 13.8569 25.971C13.8118 25.9518 13.7711 25.9237 13.7371 25.8884C13.7032 25.8531 13.6767 25.8112 13.6593 25.7654C13.6419 25.7196 13.6339 25.6708 13.6359 25.6218V17.36H11.4541C11.3856 17.3593 11.3178 17.3451 11.2548 17.3182C11.1918 17.2913 11.1346 17.2523 11.0867 17.2033C11.0387 17.1543 11.0009 17.0964 10.9753 17.0328C10.9498 16.9692 10.937 16.9012 10.9377 16.8327L10.9268 14.0455C10.9258 13.9767 10.9384 13.9084 10.9639 13.8445C10.9893 13.7806 11.0271 13.7223 11.075 13.673C11.123 13.6237 11.1802 13.5844 11.2433 13.5572C11.3065 13.53 11.3744 13.5155 11.4432 13.5145H13.6359V10.8236C13.6359 7.7 15.4904 6 18.2104 6H20.4395C20.5084 6.00071 20.5765 6.01502 20.6399 6.04211C20.7033 6.0692 20.7607 6.10854 20.8088 6.15786C20.857 6.20719 20.8949 6.26553 20.9205 6.32955C20.946 6.39356 20.9587 6.46199 20.9577 6.53091V8.87636C20.9587 8.94528 20.946 9.01371 20.9205 9.07773C20.8949 9.14174 20.857 9.20009 20.8088 9.24941C20.7607 9.29873 20.7033 9.33807 20.6399 9.36516C20.5765 9.39225 20.5084 9.40656 20.4395 9.40727H19.0723C17.5941 9.40727 17.3068 10.1345 17.3068 11.1855V13.5145H20.5559C20.6298 13.5155 20.7026 13.532 20.7697 13.5631C20.8367 13.5942 20.8964 13.6391 20.9448 13.695C20.9933 13.7508 21.0293 13.8162 21.0507 13.887C21.072 13.9577 21.0781 14.0322 21.0686 14.1055Z" fill="white"/>
</svg>
