<svg width="56" height="56" viewBox="0 0 56 56" fill="none" xmlns="http://www.w3.org/2000/svg">
<g clip-path="url(#clip0_181_912)">
<path d="M50.75 5.25H43.3125V3.5C43.3125 3.03587 43.1281 2.59075 42.7999 2.26256C42.4717 1.93437 42.0266 1.75 41.5625 1.75C41.0984 1.75 40.6533 1.93437 40.3251 2.26256C39.9969 2.59075 39.8125 3.03587 39.8125 3.5V5.25H16.1875V3.5C16.1875 3.03587 16.0031 2.59075 15.6749 2.26256C15.3467 1.93437 14.9016 1.75 14.4375 1.75C13.9734 1.75 13.5283 1.93437 13.2001 2.26256C12.8719 2.59075 12.6875 3.03587 12.6875 3.5V5.25H5.25C3.85761 5.25 2.52226 5.80312 1.53769 6.78769C0.553123 7.77226 0 9.10761 0 10.5L0 49C0 50.3924 0.553123 51.7277 1.53769 52.7123C2.52226 53.6969 3.85761 54.25 5.25 54.25H50.75C52.1424 54.25 53.4777 53.6969 54.4623 52.7123C55.4469 51.7277 56 50.3924 56 49V10.5C56 9.10761 55.4469 7.77226 54.4623 6.78769C53.4777 5.80312 52.1424 5.25 50.75 5.25ZM5.25 8.75H12.6875V10.5C12.6875 10.9641 12.8719 11.4092 13.2001 11.7374C13.5283 12.0656 13.9734 12.25 14.4375 12.25C14.9016 12.25 15.3467 12.0656 15.6749 11.7374C16.0031 11.4092 16.1875 10.9641 16.1875 10.5V8.75H39.8125V10.5C39.8125 10.9641 39.9969 11.4092 40.3251 11.7374C40.6533 12.0656 41.0984 12.25 41.5625 12.25C42.0266 12.25 42.4717 12.0656 42.7999 11.7374C43.1281 11.4092 43.3125 10.9641 43.3125 10.5V8.75H50.75C51.2141 8.75 51.6592 8.93437 51.9874 9.26256C52.3156 9.59075 52.5 10.0359 52.5 10.5V14.875H3.5V10.5C3.5 10.0359 3.68437 9.59075 4.01256 9.26256C4.34075 8.93437 4.78587 8.75 5.25 8.75V8.75ZM50.75 50.75H5.25C4.78587 50.75 4.34075 50.5656 4.01256 50.2374C3.68437 49.9092 3.5 49.4641 3.5 49V18.375H52.5V49C52.5 49.4641 52.3156 49.9092 51.9874 50.2374C51.6592 50.5656 51.2141 50.75 50.75 50.75Z" fill="#26948A"/>
<path d="M39.3749 23.9838C39.0058 23.7035 38.5405 23.581 38.0811 23.6433C37.6218 23.7057 37.206 23.9477 36.9249 24.3163L24.1412 41.0463L18.9962 35.5513C18.8387 35.3836 18.6498 35.2484 18.4402 35.1537C18.2305 35.0589 18.0043 35.0064 17.7743 34.9991C17.5444 34.9918 17.3153 35.0298 17.1 35.1111C16.8848 35.1923 16.6877 35.3151 16.5199 35.4726C16.3521 35.63 16.217 35.8189 16.1223 36.0286C16.0275 36.2382 15.975 36.4644 15.9677 36.6944C15.9604 36.9243 15.9984 37.1535 16.0797 37.3687C16.1609 37.5839 16.2837 37.7811 16.4412 37.9488L23.0037 44.9488C23.1676 45.1232 23.3655 45.262 23.5853 45.3569C23.805 45.4517 24.0418 45.5004 24.2812 45.5001H24.3687C24.6232 45.4868 24.8718 45.418 25.097 45.2986C25.3221 45.1792 25.5185 45.012 25.6724 44.8088L39.6724 26.4338C39.9566 26.069 40.0848 25.6065 40.0291 25.1474C39.9733 24.6884 39.7381 24.27 39.3749 23.9838Z" fill="#26948A"/>
</g>
<defs>
<clipPath id="clip0_181_912">
<rect width="56" height="56" fill="white"/>
</clipPath>
</defs>
</svg>
