<svg width="56" height="56" viewBox="0 0 56 56" fill="none" xmlns="http://www.w3.org/2000/svg">
<path d="M53.8414 8.61401L48.5911 3.36401C48.0793 2.85191 47.2487 2.85127 46.7363 3.36336C46.7363 3.36368 46.736 3.36401 46.7353 3.36401L30.9856 19.1143C30.7394 19.3603 30.6013 19.6938 30.6013 20.0419V25.2922C30.6013 26.0168 31.1889 26.6044 31.9135 26.6044H37.1638C37.5119 26.6044 37.8454 26.4663 38.0914 26.2201L53.8414 10.4701C54.3538 9.95797 54.3541 9.12738 53.8423 8.61497C53.842 8.61497 53.842 8.61433 53.8414 8.61401ZM36.6203 23.9797H33.226V20.5858L47.6635 6.14825L51.0575 9.5422L36.6203 23.9797Z" fill="#26948A"/>
<path d="M50.2883 18.7297C49.5636 18.7297 48.9761 19.3172 48.9761 20.0418V38.4168C48.9738 40.5904 47.2122 42.3521 45.0386 42.3546H31.9136C31.6294 42.354 31.353 42.4462 31.126 42.617L22.7261 48.9171V43.6671C22.7261 42.9422 22.1385 42.3546 21.4136 42.3546H8.28858C6.11499 42.3521 4.35332 40.5904 4.3514 38.4172V14.7918C4.35364 12.6186 6.11499 10.8569 8.28858 10.8547H31.9136C32.6385 10.8547 33.2261 10.2671 33.2261 9.54216C33.2261 8.81752 32.6385 8.22998 31.9136 8.22998H8.28858C4.66572 8.23351 1.72961 11.1696 1.72607 14.7918V38.4172C1.72961 42.0397 4.66572 44.9758 8.28858 44.9796H20.1011V51.5421C20.1011 52.2668 20.6886 52.8543 21.4136 52.8543C21.6977 52.8543 21.9738 52.7622 22.2011 52.592L32.3525 44.9793H45.0386C48.6614 44.9758 51.5972 42.0397 51.6011 38.4168V20.0422C51.6011 19.3172 51.0132 18.7297 50.2883 18.7297Z" fill="#26948A"/>
<path d="M24.0383 16.1046H10.9139C10.1886 16.1046 9.60107 16.6922 9.60107 17.4171C9.60107 18.1418 10.1886 18.7293 10.9139 18.7293H24.0383C24.7632 18.7293 25.3511 18.1418 25.3511 17.4171C25.3511 16.6922 24.7632 16.1046 24.0383 16.1046Z" fill="#26948A"/>
<path d="M10.9139 26.6046H24.0383C24.7632 26.6046 25.3511 26.0168 25.3511 25.2921C25.3511 24.5672 24.7632 23.9796 24.0383 23.9796H10.9139C10.1886 23.9796 9.60107 24.5672 9.60107 25.2921C9.60107 26.0168 10.1886 26.6046 10.9139 26.6046Z" fill="#26948A"/>
<path d="M10.9139 34.4793H42.4136C43.1386 34.4793 43.7258 33.8918 43.7258 33.1668C43.7258 32.4422 43.1383 31.8546 42.4136 31.8546H10.9139C10.1886 31.8546 9.60107 32.4422 9.60107 33.1668C9.60107 33.8918 10.1886 34.4793 10.9139 34.4793Z" fill="#26948A"/>
</svg>
