<svg width="56" height="56" viewBox="0 0 56 56" fill="none" xmlns="http://www.w3.org/2000/svg">
<g clip-path="url(#clip0_181_915)">
<path d="M16.7288 43.3815C17.4742 42.2538 17.9096 40.9041 17.9096 39.4541C17.9096 35.5174 14.7055 32.3147 10.7672 32.3147C6.82879 32.3147 3.62487 35.5174 3.62487 39.4541C3.62487 40.9042 4.0604 42.2539 4.80579 43.3817C1.97265 44.5553 0.000732422 47.3677 0.000732422 50.5317V54.9062C0.000732422 55.5103 0.490404 56 1.09448 56H20.44C21.044 56 21.5337 55.5103 21.5337 54.9062V50.5317C21.5337 47.3672 19.5618 44.5549 16.7288 43.3815ZM10.7672 34.5022C13.4992 34.5022 15.7221 36.7236 15.7221 39.4541C15.7221 42.1863 13.4994 44.4092 10.7672 44.4092C8.03509 44.4092 5.81237 42.1863 5.81237 39.4541C5.81237 36.7236 8.03509 34.5022 10.7672 34.5022ZM19.3462 53.8125H2.18823V50.5317C2.18823 47.9701 3.99073 45.7295 6.45003 45.1392C7.65009 46.0529 9.14601 46.5967 10.7672 46.5967C12.3883 46.5967 13.8844 46.0529 15.0844 45.1392C17.5437 45.7291 19.3462 47.9698 19.3462 50.5317V53.8125Z" fill="#26948A"/>
<path d="M51.1912 43.3814C51.9364 42.2537 52.3719 40.9041 52.3719 39.4541C52.3719 35.5174 49.1678 32.3147 45.2296 32.3147C41.2929 32.3147 38.0903 35.5174 38.0903 39.4541C38.0903 40.9038 38.5254 42.2533 39.2703 43.3808C36.436 44.5539 34.4631 47.3668 34.4631 50.5317V54.9062C34.4631 55.5103 34.9528 56 35.5569 56H54.9055C55.5096 56 55.9993 55.5103 55.9993 54.9062V50.5317C55.9992 47.3672 54.0261 44.5546 51.1912 43.3814ZM45.2296 34.5022C47.9617 34.5022 50.1844 36.7236 50.1844 39.4541C50.1844 42.1863 47.9617 44.4092 45.2296 44.4092C42.4991 44.4092 40.2778 42.1863 40.2778 39.4541C40.2778 36.7236 42.4991 34.5022 45.2296 34.5022ZM53.8117 53.8125H36.6505V50.5317C36.6505 47.9696 38.4538 45.7287 40.9139 45.1389C42.1135 46.0526 43.609 46.5967 45.2296 46.5967C46.8507 46.5967 48.3468 46.0527 49.5468 45.1391C52.0079 45.7292 53.8116 47.9699 53.8116 50.5317V53.8125H53.8117Z" fill="#26948A"/>
<path d="M45.26 28.901C45.4392 29.0158 45.6441 29.0736 45.8498 29.0736C46.0267 29.0736 46.204 29.0308 46.3656 28.9443C46.7147 28.7576 46.9356 28.3967 46.9433 28.0009L47.0065 24.7004C49.9039 23.99 52.0527 21.3409 52.0527 18.282C52.0527 15.0815 49.7647 12.4061 46.7388 11.8035C46.8944 11.111 46.9745 10.4036 46.9745 9.68778C46.9743 4.34591 42.6286 0 37.2868 0H29.8245C29.2204 0 28.7307 0.489672 28.7307 1.09375C28.7307 1.69783 29.2204 2.1875 29.8245 2.1875H37.2868C41.4224 2.1875 44.787 5.5522 44.787 9.68789C44.787 10.3632 44.6956 11.0289 44.5168 11.6759H29.5765C26.3066 11.6759 23.5856 14.0645 23.0627 17.1883H20.1239C19.8766 17.1883 19.6366 17.2721 19.443 17.426L12.9651 22.5781L12.8807 18.2266C12.8699 17.6676 12.4392 17.2067 11.8821 17.1581C8.04396 16.8237 5.03735 13.5424 5.03735 9.68767C5.03735 5.5522 8.40326 2.1875 12.5406 2.1875H20.0029C20.607 2.1875 21.0967 1.69783 21.0967 1.09375C21.0967 0.489672 20.607 0 20.0029 0H12.5406C7.19707 0 2.84985 4.34591 2.84985 9.68789C2.84985 12.1185 3.76248 14.4468 5.41973 16.244C6.83963 17.7839 8.69146 18.8128 10.7117 19.2011L10.8208 24.8325C10.8289 25.2486 11.0722 25.6239 11.4487 25.801C11.5971 25.8709 11.756 25.9051 11.9142 25.9051C12.1571 25.9051 12.398 25.8243 12.5952 25.6675L20.5057 19.3759H23.0627C23.5856 22.4996 26.3066 24.8883 29.5765 24.8883H38.9912L45.26 28.901ZM25.158 18.282C25.158 15.8456 27.1402 13.8634 29.5765 13.8634H45.4467C47.883 13.8634 49.8652 15.8456 49.8652 18.282C49.8652 20.5529 48.0951 22.4861 45.8353 22.6831C45.2782 22.7316 44.8474 23.1926 44.8368 23.7518L44.7936 26.0051L39.901 22.8732C39.725 22.7605 39.5203 22.7006 39.3113 22.7006H29.5765C27.1401 22.7007 25.158 20.7185 25.158 18.282Z" fill="#26948A"/>
<path d="M31.3064 17.1868C30.7023 17.1868 30.2126 17.678 30.2126 18.282C30.2126 18.8861 30.7023 19.3758 31.3064 19.3758C31.9105 19.3758 32.4001 18.8861 32.4001 18.282V18.279C32.4001 17.6749 31.9105 17.1868 31.3064 17.1868Z" fill="#26948A"/>
<path d="M37.5132 17.1868C36.9091 17.1868 36.4194 17.678 36.4194 18.282C36.4194 18.8861 36.9091 19.3758 37.5132 19.3758C38.1173 19.3758 38.6069 18.8861 38.6069 18.282V18.279C38.6069 17.6749 38.1173 17.1868 37.5132 17.1868Z" fill="#26948A"/>
<path d="M43.7168 19.3758C44.3209 19.3758 44.8105 18.8861 44.8105 18.282V18.279C44.8105 17.6749 44.3209 17.1868 43.7168 17.1868C43.1127 17.1868 42.623 17.678 42.623 18.282C42.623 18.8861 43.1127 19.3758 43.7168 19.3758Z" fill="#26948A"/>
<path d="M24.9137 2.1875H24.9199C25.524 2.1875 26.0106 1.69783 26.0106 1.09375C26.0106 0.489672 25.5179 0 24.9138 0C24.3097 0 23.8201 0.489672 23.8201 1.09375C23.8201 1.69783 24.3096 2.1875 24.9137 2.1875Z" fill="#26948A"/>
</g>
<defs>
<clipPath id="clip0_181_915">
<rect width="56" height="56" fill="white"/>
</clipPath>
</defs>
</svg>
