<svg width="56" height="56" viewBox="0 0 56 56" fill="none" xmlns="http://www.w3.org/2000/svg">
<g clip-path="url(#clip0_181_931)">
<path d="M49.5507 39.5197C49.2436 39.3924 48.8901 39.4627 48.6549 39.6978L39.6724 48.6803C39.4373 48.9155 39.367 49.269 39.4943 49.5761C39.6214 49.8833 39.9213 50.0835 40.2537 50.0835H49.2362C49.6902 50.0835 50.0582 49.7156 50.0582 49.2615V40.279C50.0581 39.9466 49.8578 39.6469 49.5507 39.5197ZM42.2378 48.4397L48.4141 42.2634V48.4397H42.2378Z" fill="#26948A"/>
<path d="M55.4927 26.3449C55.1856 26.2176 54.8321 26.2879 54.5969 26.523L52.1352 28.9847V12.2469C52.1352 11.7929 51.7672 11.4249 51.3133 11.4249H44.9978L47.2903 9.13243C47.2907 9.1321 47.291 9.13166 47.2913 9.13133L49.5003 6.92239C49.9735 6.44912 50.2342 5.81956 50.2342 5.15018C50.2342 4.48081 49.9735 3.85146 49.5003 3.37798L46.9459 0.823629C46.4727 0.350363 45.8431 0.0897217 45.1737 0.0897217C44.5043 0.0897217 43.8749 0.350363 43.4015 0.823629L41.1915 3.03366L38.521 5.70417L32.8003 11.4248H7.28658V3.29332C7.28658 2.8393 6.91853 2.47137 6.46462 2.47137C2.90008 2.47159 0 5.37145 0 8.93621V43.8472C0 43.9079 0.00700001 43.967 0.0194688 44.0239C0.133 45.5364 0.787392 46.9418 1.88104 48.0086C3.05004 49.1488 4.59321 49.7767 6.2264 49.7767H31.3431L26.6127 54.5071C26.3777 54.7422 26.3074 55.0956 26.4346 55.4028C26.5618 55.71 26.8616 55.9102 27.194 55.9102H55.1782C55.6321 55.9102 56.0001 55.5423 56.0001 55.0883V27.1043C56.0001 26.7719 55.7997 26.4721 55.4927 26.3449ZM44.5642 1.98618C44.9002 1.64996 45.4476 1.64996 45.7836 1.98618L48.3381 4.54064C48.6743 4.87675 48.6743 5.42395 48.3381 5.76017L46.7093 7.38899L42.9352 3.61499L44.5642 1.98618ZM41.7728 4.77743L45.5468 8.55132L44.0386 10.0595L40.2649 6.28561L41.7728 4.77743ZM54.3564 36.3402H52.8399C52.3859 36.3402 52.018 36.7081 52.018 37.1621C52.018 37.6161 52.3859 37.9841 52.8399 37.9841H54.3564V40.461H52.8399C52.3859 40.461 52.018 40.8289 52.018 41.2829C52.018 41.737 52.3859 42.1049 52.8399 42.1049H54.3564V44.5817H52.8399C52.3859 44.5817 52.018 44.9496 52.018 45.4036C52.018 45.8577 52.3859 46.2256 52.8399 46.2256H54.3564V48.7025H52.8399C52.3859 48.7025 52.018 49.0706 52.018 49.5245C52.018 49.9785 52.3859 50.3464 52.8399 50.3464H54.3564V54.2666H29.1782L37.4807 45.9643C37.8017 45.6432 37.8017 45.1229 37.4807 44.8019C37.4438 44.765 37.4042 44.7331 37.3628 44.7046C37.0428 44.4854 36.6024 44.5177 36.3182 44.8019L32.987 48.133H6.22651C3.73363 48.133 1.72682 46.1868 1.64785 43.6984C1.65255 43.5422 1.66469 43.3873 1.68416 43.2342C1.68427 43.2333 1.68438 43.2324 1.68449 43.2316C1.69368 43.1588 1.70472 43.0864 1.7173 43.0145C1.71872 43.0063 1.72025 42.9981 1.72168 42.9898C1.73316 42.9256 1.74607 42.8618 1.76018 42.7981C1.76411 42.7804 1.76827 42.7627 1.77243 42.7451C1.78489 42.6913 1.79835 42.6378 1.81278 42.5845C1.82066 42.5556 1.82886 42.5271 1.83729 42.4983C1.84932 42.4565 1.86179 42.4149 1.87502 42.3736C1.88825 42.3324 1.90236 42.2916 1.91669 42.2508C1.92664 42.2223 1.93649 42.1937 1.94721 42.1654C1.96722 42.1116 1.98844 42.0583 2.01032 42.0055C2.01655 41.9903 2.02268 41.9748 2.02913 41.9596C2.05724 41.894 2.08644 41.8292 2.11729 41.7651C2.1186 41.7623 2.1198 41.7596 2.12111 41.7569C2.76402 40.4264 4.00051 39.4345 5.4844 39.1267C5.48856 39.1258 5.49271 39.1249 5.49687 39.124C5.5649 39.1101 5.63359 39.0982 5.70271 39.0871C5.7142 39.0853 5.72568 39.083 5.73739 39.0812C5.79984 39.0717 5.86295 39.0643 5.92606 39.0572C5.94378 39.0552 5.96139 39.0524 5.97922 39.0507C6.04014 39.0446 6.10161 39.0405 6.16307 39.0367C6.18254 39.0355 6.20201 39.0334 6.22148 39.0324C6.30198 39.0284 6.38314 39.0263 6.46462 39.0263C6.91853 39.0263 7.28658 38.6584 7.28658 38.2044V32.2446C7.28658 31.7906 6.91853 31.4227 6.46462 31.4227C6.01072 31.4227 5.64267 31.7906 5.64267 32.2446V37.4341C4.2547 37.6097 2.96637 38.2287 1.95049 39.2208C1.84363 39.3251 1.74235 39.4336 1.64369 39.5439V8.93621C1.64369 6.55828 3.37466 4.57673 5.64256 4.18539V12.2469V28.9569V28.957C5.64256 29.4109 6.01061 29.779 6.46451 29.779C6.91842 29.779 7.28647 29.4109 7.28647 28.957V28.9569V13.0688H31.1565L26.6126 17.6127C26.2916 17.9338 26.2916 18.4541 26.6126 18.7752C26.9336 19.0961 27.4541 19.0961 27.775 18.7752L33.722 12.8281C33.7222 12.8279 33.7224 12.8277 33.7226 12.8276L39.1022 7.44794L42.876 11.2219L42.4332 11.6647C42.4329 11.665 42.4324 11.6653 42.4321 11.6657L25.8587 28.2393L22.0848 24.4654L25.3516 21.1986C25.6727 20.8775 25.6727 20.3572 25.3516 20.0361C25.0306 19.7152 24.5102 19.7152 24.1893 20.0361L20.3412 23.8842C20.3206 23.9047 20.3014 23.9265 20.2833 23.9488C20.2773 23.9563 20.2719 23.9642 20.2662 23.972C20.2547 23.9874 20.2433 24.003 20.2327 24.0192C20.2267 24.0286 20.2212 24.0382 20.2155 24.0479C20.2064 24.0632 20.1977 24.0788 20.1897 24.0946C20.1844 24.1049 20.1797 24.1153 20.1749 24.126C20.1676 24.1421 20.1608 24.1585 20.1546 24.1749C20.1524 24.1807 20.1495 24.1862 20.1475 24.192L18.5461 28.7283L17.4543 31.8213C17.4399 31.8625 17.4295 31.9042 17.4217 31.9463H14.6882C14.2343 31.9463 13.8663 32.3143 13.8663 32.7683C13.8663 33.2223 14.2343 33.5902 14.6882 33.5902H37.4507C37.9048 33.5902 38.2727 33.2223 38.2727 32.7683C38.2727 32.3143 37.9048 31.9463 37.4507 31.9463H21.1196L26.1323 30.1769C26.1364 30.1753 26.1404 30.1733 26.1445 30.1717C26.164 30.1645 26.1831 30.1564 26.202 30.1478C26.2096 30.1443 26.2171 30.141 26.2245 30.1374C26.2441 30.1275 26.2635 30.1167 26.2825 30.1051C26.2887 30.1014 26.295 30.098 26.301 30.0942C26.3208 30.0815 26.3401 30.0676 26.359 30.0529C26.3637 30.0493 26.3686 30.0462 26.3732 30.0424C26.3961 30.0241 26.4185 30.0043 26.4397 29.9831L43.3539 13.0689H50.4912V30.6287L38.7338 42.3862C38.4128 42.7073 38.4128 43.2276 38.7338 43.5486C38.7538 43.5687 38.7747 43.5875 38.7963 43.6051C38.947 43.7279 39.1311 43.7894 39.315 43.7894C39.499 43.7894 39.6832 43.7279 39.8338 43.6051C39.8553 43.5876 39.8762 43.5687 39.8963 43.5486C39.8966 43.5483 39.8963 43.5486 39.8966 43.5483L54.3564 29.0884V36.3402ZM24.3553 29.0606L22.0009 29.8917L20.4323 28.3231L21.2634 25.9687L24.3553 29.0606Z" fill="#26948A"/>
</g>
<defs>
<clipPath id="clip0_181_931">
<rect width="56" height="56" fill="white"/>
</clipPath>
</defs>
</svg>
