<svg width="56" height="56" viewBox="0 0 56 56" fill="none" xmlns="http://www.w3.org/2000/svg">
<g clip-path="url(#clip0_181_938)">
<path d="M55.8972 13.2793C55.7044 12.5625 55.2342 11.9515 54.5908 11.581C53.947 11.2088 53.1815 11.1081 52.4634 11.3008C51.7462 11.494 51.1352 11.9638 50.7647 12.6072L50.2981 13.4191C49.8548 13.1644 49.2884 13.3143 49.0291 13.7554L46.6588 17.7957L45.8469 17.3291C45.6318 17.2047 45.3757 17.171 45.1361 17.2357C44.8959 17.3008 44.6918 17.4585 44.5683 17.6745C44.3154 18.1206 44.4694 18.6874 44.9137 18.9435L45.7257 19.41L37.7937 33.1557L35.8339 38.3911L34.9008 40.1358C34.3544 41.0863 34.4128 42.2678 35.0502 43.1595L32.9506 45.7349L32.3628 44.2608C32.0976 43.6038 31.4838 43.1536 30.778 43.0985C30.0718 43.0429 29.3951 43.3919 29.0311 43.9993L28.6952 44.5684L28.3781 40.8357C28.3052 39.9526 27.6213 39.2427 26.7419 39.1361C25.862 39.03 25.0291 39.5571 24.7479 40.3974L22.4524 47.2841C22.292 47.7712 22.5544 48.2961 23.0402 48.4601C23.1313 48.5025 23.2292 48.528 23.3295 48.5344C23.7305 48.5358 24.0877 48.2801 24.2162 47.9001L26.5022 41.0134L26.8289 44.8017C26.8963 45.61 27.4773 46.2821 28.2674 46.4653C29.0575 46.6484 29.8749 46.3003 30.2909 45.6045L30.6363 45.035L31.215 46.5004C31.4606 47.1178 32.016 47.5584 32.6735 47.6563C33.331 47.7543 33.9908 47.495 34.4064 46.9761L36.5807 44.2235C36.8213 44.2863 37.0692 44.3178 37.318 44.3169C38.3181 44.3246 39.2468 43.7979 39.7534 42.9353L40.6866 41.377L44.2421 37.0565L52.2579 23.1427L53.0699 23.6093C53.2863 23.7333 53.4439 23.9379 53.5082 24.1789C53.5729 24.4181 53.5392 24.6733 53.4152 24.8879L49.6825 31.355C49.5417 31.5673 49.4939 31.8279 49.5504 32.0767C49.6069 32.325 49.7623 32.5396 49.981 32.6704C50.1961 32.7953 50.4521 32.829 50.6918 32.7643C50.9319 32.6991 51.1361 32.5415 51.2596 32.3255L54.9922 25.8584C55.3645 25.2146 55.4652 24.4491 55.272 23.731C55.0788 23.0138 54.609 22.4028 53.9657 22.0323L53.1537 21.5657L55.4866 17.525C55.7413 17.0817 55.5914 16.5157 55.1508 16.256L55.6174 15.4441C55.9997 14.7902 56.1008 14.0092 55.8972 13.2793ZM52.3791 13.5403C52.5026 13.3244 52.7076 13.1663 52.9486 13.102C53.1883 13.0428 53.4417 13.076 53.6576 13.1954C53.8741 13.3189 54.0317 13.5239 54.0964 13.7645C54.1557 14.0042 54.1224 14.2575 54.003 14.4735L53.5364 15.2855L51.9125 14.3523L52.3791 13.5403ZM39.66 39.595L39.1934 39.3243L37.8124 38.5214L39.1374 34.9756L42.0768 36.6738L39.66 39.595ZM36.8605 42.2915C36.4664 42.0167 36.3452 41.4882 36.5807 41.069L37.0473 40.2575L38.6708 41.1906L38.2042 41.9931C38.0735 42.22 37.8538 42.3813 37.5982 42.4382C37.3426 42.4947 37.0751 42.4419 36.8605 42.2915ZM43.1408 35.1437L39.912 33.2773L47.3774 20.3432L50.6061 22.2096L43.1408 35.1437ZM51.5393 20.5952L48.3106 18.7288L50.1769 15.5001L53.4057 17.3665L51.5393 20.5952Z" fill="#26948A"/>
<path d="M14.7251 41.825L11.422 45.1193L9.44361 43.1409C9.07954 42.7791 8.49175 42.7791 8.12769 43.1409C7.95089 43.3163 7.85156 43.5546 7.85156 43.8034C7.85156 44.0522 7.95089 44.2909 8.12769 44.4659L10.1061 46.4443C10.4561 46.7916 10.929 46.9861 11.422 46.9857C11.9178 46.9884 12.3949 46.7938 12.7471 46.4443L16.041 43.1409C16.3581 42.7704 16.3367 42.2186 15.9922 41.8742C15.6473 41.5292 15.0955 41.5078 14.7251 41.825Z" fill="#26948A"/>
<path d="M3.73291 44.3351C3.73291 48.7161 7.28426 52.267 11.6649 52.267C16.0455 52.267 19.5969 48.7161 19.5969 44.3351C19.5969 43.8197 19.179 43.4019 18.6637 43.4019C18.1484 43.4019 17.7305 43.8197 17.7305 44.3351C17.7305 47.685 15.0148 50.4007 11.6649 50.4007C8.31494 50.4007 5.59926 47.685 5.59926 44.3351C5.59926 40.9851 8.31494 38.2694 11.6649 38.2694C12.9781 38.2658 14.2562 38.6918 15.3042 39.4828C15.7165 39.7922 16.3016 39.7084 16.6105 39.296C16.9199 38.8836 16.8365 38.299 16.4242 37.9896C14.0206 36.1871 10.8046 35.8973 8.11765 37.2406C5.43021 38.5843 3.73291 41.3309 3.73291 44.3351Z" fill="#26948A"/>
<path d="M33.5942 7.47475C34.1095 7.47475 34.5273 7.05737 34.5273 6.54157C34.5273 6.02623 34.1095 5.6084 33.5942 5.6084H9.33161C8.81627 5.6084 8.39844 6.02623 8.39844 6.54157V10.2743C8.39844 10.7901 8.81627 11.2074 9.33161 11.2074H33.5942C34.1095 11.2074 34.5273 10.7901 34.5273 10.2743C34.5273 9.75893 34.1095 9.3411 33.5942 9.3411H10.2648V7.47475H33.5942Z" fill="#26948A"/>
<path d="M12.1314 13.0737C11.6161 13.0737 11.1982 13.4916 11.1982 14.0069C11.1982 14.5227 11.6161 14.9401 12.1314 14.9401H30.7949C31.3102 14.9401 31.7281 14.5227 31.7281 14.0069C31.7281 13.4916 31.3102 13.0737 30.7949 13.0737H12.1314Z" fill="#26948A"/>
<path d="M36.3937 19.606H15.8638C15.3485 19.606 14.9307 20.0238 14.9307 20.5391C14.9307 21.0549 15.3485 21.4723 15.8638 21.4723H36.3937C36.909 21.4723 37.3269 21.0549 37.3269 20.5391C37.3269 20.0238 36.909 19.606 36.3937 19.606Z" fill="#26948A"/>
<path d="M27.0621 26.1383C27.0621 25.6229 26.6442 25.2051 26.1289 25.2051H7.4654C6.95006 25.2051 6.53223 25.6229 6.53223 26.1383C6.53223 26.6541 6.95006 27.0714 7.4654 27.0714H26.1289C26.6442 27.0714 27.0621 26.6541 27.0621 26.1383Z" fill="#26948A"/>
<path d="M36.3936 25.2051H29.8614C29.3461 25.2051 28.9282 25.6229 28.9282 26.1383C28.9282 26.6541 29.3461 27.0714 29.8614 27.0714H36.3936C36.909 27.0714 37.3268 26.6541 37.3268 26.1383C37.3268 25.6229 36.909 25.2051 36.3936 25.2051Z" fill="#26948A"/>
<path d="M16.7971 31.7372C17.3125 31.7372 17.7303 31.3198 17.7303 30.804C17.7303 30.2887 17.3125 29.8708 16.7971 29.8708H7.4654C6.95006 29.8708 6.53223 30.2887 6.53223 30.804C6.53223 31.3198 6.95006 31.7372 7.4654 31.7372H16.7971Z" fill="#26948A"/>
<path d="M20.5299 31.7372H27.0621C27.5774 31.7372 27.9952 31.3198 27.9952 30.804C27.9952 30.2887 27.5774 29.8708 27.0621 29.8708H20.5299C20.0145 29.8708 19.5967 30.2887 19.5967 30.804C19.5967 31.3198 20.0145 31.7372 20.5299 31.7372Z" fill="#26948A"/>
<path d="M41.9928 42.9353C41.4775 42.9353 41.0597 43.3531 41.0597 43.8685V53.2002C41.0597 53.716 40.6418 54.1334 40.1265 54.1334H2.79952C2.28418 54.1334 1.86635 53.716 1.86635 53.2002V2.8088C1.86635 2.29346 2.28418 1.87563 2.79952 1.87563H40.1265C40.6418 1.87563 41.0597 2.29346 41.0597 2.8088V20.3341C41.0597 20.8494 41.4775 21.2672 41.9928 21.2672C42.5082 21.2672 42.926 20.8494 42.926 20.3341V2.8088C42.926 1.26277 41.6725 0.00927734 40.1265 0.00927734H2.79952C1.2535 0.00927734 0 1.26277 0 2.8088V53.2002C0 54.7467 1.2535 55.9997 2.79952 55.9997H40.1265C41.6725 55.9997 42.926 54.7467 42.926 53.2002V43.8685C42.926 43.3531 42.5082 42.9353 41.9928 42.9353Z" fill="#26948A"/>
</g>
<defs>
<clipPath id="clip0_181_938">
<rect width="56" height="56" fill="white"/>
</clipPath>
</defs>
</svg>
