<svg width="56" height="56" viewBox="0 0 56 56" fill="none" xmlns="http://www.w3.org/2000/svg">
<g clip-path="url(#clip0_181_858)">
<path d="M52.0962 42.9847C53.7949 45.3973 55.9999 48.1857 55.9999 50.1667C55.9999 51.7138 55.3853 53.1975 54.2914 54.2915C53.1974 55.3854 51.7137 56 50.1666 56C48.6195 56 47.1357 55.3854 46.0418 54.2915C44.9478 53.1975 44.3332 51.7138 44.3332 50.1667C44.3332 48.3583 46.5756 45.4813 48.2812 43.0057C48.4949 42.6988 48.7793 42.4477 49.1103 42.2737C49.4413 42.0996 49.8093 42.0077 50.1833 42.0056C50.5573 42.0036 50.9263 42.0915 51.2592 42.2618C51.5921 42.4322 51.8792 42.6801 52.0962 42.9847ZM50.0499 32.3493L29.8152 52.584C27.6255 54.7685 24.6588 55.9952 21.5657 55.9952C18.4727 55.9952 15.506 54.7685 13.3162 52.584L3.41823 42.6837C1.23035 40.4958 0.0012207 37.5283 0.0012207 34.4342C0.0012207 31.34 1.23035 28.3726 3.41823 26.1847L16.7392 12.8613L10.0752 6.11801C9.65201 5.67567 9.41959 5.08471 9.42808 4.47257C9.43657 3.86043 9.6853 3.27615 10.1206 2.84572C10.556 2.41529 11.143 2.17319 11.7552 2.17162C12.3674 2.17005 12.9557 2.40915 13.3932 2.83735L20.0386 9.56668L23.6506 5.95001L21.6836 3.98301C21.2585 3.54294 21.0233 2.95354 21.0287 2.34174C21.034 1.72995 21.2794 1.14472 21.712 0.712104C22.1446 0.279485 22.7298 0.034091 23.3416 0.0287747C23.9534 0.0234584 24.5428 0.258645 24.9829 0.683681L55.3162 31.017C55.5391 31.2323 55.7169 31.4897 55.8391 31.7744C55.9614 32.0591 56.0258 32.3653 56.0285 32.6751C56.0312 32.9849 55.9722 33.2921 55.8548 33.5789C55.7375 33.8657 55.5643 34.1262 55.3452 34.3453C55.1261 34.5644 54.8656 34.7376 54.5788 34.8549C54.292 34.9723 53.9848 35.0313 53.675 35.0286C53.3652 35.0259 53.059 34.9615 52.7743 34.8393C52.4896 34.717 52.2322 34.5392 52.0169 34.3163L50.0499 32.3493ZM46.7506 29.05L26.9499 9.24935L23.3169 12.8847L34.3256 24.0333C34.5645 24.2456 34.7573 24.5046 34.892 24.7944C35.0267 25.0842 35.1005 25.3986 35.1087 25.718C35.1169 26.0375 35.0594 26.3552 34.9398 26.6516C34.8201 26.9479 34.6409 27.2165 34.4131 27.4407C34.1854 27.6649 33.9141 27.8399 33.6159 27.9549C33.3177 28.07 32.9991 28.1225 32.6798 28.1093C32.3605 28.0961 32.0473 28.0175 31.7597 27.8783C31.472 27.7391 31.216 27.5422 31.0076 27.3L20.0199 16.1817L6.7199 29.4817C6.06976 30.1317 5.55404 30.9034 5.20218 31.7528C4.85033 32.6021 4.66923 33.5125 4.66923 34.4318C4.66923 35.3512 4.85033 36.2615 5.20218 37.1109C5.55404 37.9603 6.06976 38.732 6.7199 39.382L16.6179 49.2823C17.9322 50.5925 19.7123 51.3282 21.5681 51.3282C23.4238 51.3282 25.2039 50.5925 26.5182 49.2823L46.7506 29.05Z" fill="#26948A"/>
</g>
<defs>
<clipPath id="clip0_181_858">
<rect width="56" height="56" fill="white"/>
</clipPath>
</defs>
</svg>
