<svg width="56" height="56" viewBox="0 0 56 56" fill="none" xmlns="http://www.w3.org/2000/svg">
<g clip-path="url(#clip0_181_848)">
<path d="M21 28C23.7689 28 26.4757 27.1789 28.778 25.6406C31.0803 24.1022 32.8747 21.9157 33.9343 19.3576C34.9939 16.7994 35.2712 13.9845 34.731 11.2687C34.1908 8.553 32.8574 6.05844 30.8995 4.1005C28.9416 2.14257 26.447 0.809198 23.7313 0.269005C21.0155 -0.271188 18.2006 0.00605837 15.6424 1.06569C13.0843 2.12531 10.8978 3.91973 9.35943 6.22201C7.82109 8.5243 7 11.2311 7 14C7.00371 17.7119 8.47989 21.2707 11.1046 23.8954C13.7293 26.5201 17.2881 27.9963 21 28ZM21 4.66666C22.846 4.66666 24.6505 5.21406 26.1853 6.23961C27.7202 7.26517 28.9165 8.72284 29.6229 10.4283C30.3293 12.1337 30.5141 14.0104 30.154 15.8208C29.7939 17.6313 28.905 19.2944 27.5997 20.5997C26.2944 21.9049 24.6313 22.7939 22.8208 23.154C21.0104 23.5141 19.1337 23.3293 17.4283 22.6229C15.7228 21.9165 14.2652 20.7202 13.2396 19.1853C12.2141 17.6505 11.6667 15.846 11.6667 14C11.6667 11.5246 12.65 9.15067 14.4003 7.40033C16.1507 5.64999 18.5246 4.66666 21 4.66666Z" fill="#26948A"/>
<path d="M21 32.6667C15.4325 32.6734 10.0951 34.8881 6.15826 38.8249C2.22147 42.7617 0.00679223 48.0992 0 53.6667C0 54.2855 0.245833 54.879 0.683417 55.3166C1.121 55.7542 1.71449 56 2.33333 56C2.95217 56 3.54566 55.7542 3.98325 55.3166C4.42083 54.879 4.66667 54.2855 4.66667 53.6667C4.66667 49.3348 6.38749 45.1803 9.45059 42.1172C12.5137 39.0542 16.6681 37.3333 21 37.3333C25.3319 37.3333 29.4863 39.0542 32.5494 42.1172C35.6125 45.1803 37.3333 49.3348 37.3333 53.6667C37.3333 54.2855 37.5792 54.879 38.0167 55.3166C38.4543 55.7542 39.0478 56 39.6667 56C40.2855 56 40.879 55.7542 41.3166 55.3166C41.7542 54.879 42 54.2855 42 53.6667C41.9932 48.0992 39.7785 42.7617 35.8417 38.8249C31.9049 34.8881 26.5675 32.6734 21 32.6667Z" fill="#26948A"/>
<path d="M51.3334 18.375C50.0349 18.4397 48.8148 19.0161 47.9402 19.9782C47.0657 20.9402 46.6078 22.2095 46.6668 23.5083C46.7258 22.2095 46.2679 20.9402 45.3933 19.9782C44.5187 19.0161 43.2986 18.4397 42.0001 18.375C40.7016 18.4397 39.4815 19.0161 38.6069 19.9782C37.7323 20.9402 37.2744 22.2095 37.3334 23.5083C37.3334 27.545 42.5974 32.2747 45.2201 34.3793C45.6306 34.708 46.1409 34.8871 46.6668 34.8871C47.1927 34.8871 47.7029 34.708 48.1134 34.3793C50.7361 32.2793 56.0001 27.545 56.0001 23.5083C56.0591 22.2095 55.6012 20.9402 54.7266 19.9782C53.852 19.0161 52.632 18.4397 51.3334 18.375Z" fill="#26948A"/>
</g>
<defs>
<clipPath id="clip0_181_848">
<rect width="56" height="56" fill="white"/>
</clipPath>
</defs>
</svg>
