<svg width="56" height="56" viewBox="0 0 56 56" fill="none" xmlns="http://www.w3.org/2000/svg">
<g clip-path="url(#clip0_181_852)">
<path d="M11.83 48.1437C11.83 48.1134 11.8159 48.174 11.83 48.1437V48.1437Z" fill="#26948A"/>
<path d="M52.108 50.1433C51.496 50.6354 50.7792 50.9804 50.013 51.1519C49.2467 51.3235 48.4512 51.3169 47.6879 51.1328C46.9245 50.9487 46.2136 50.5918 45.6098 50.0898C45.0059 49.5878 44.5253 48.9539 44.205 48.237C44.0399 47.7849 43.7398 47.3944 43.3454 47.1185C42.951 46.8426 42.4813 46.6946 42 46.6946C41.5186 46.6946 41.0489 46.8426 40.6545 47.1185C40.2601 47.3944 39.96 47.7849 39.795 48.237C39.3622 49.1417 38.6823 49.9056 37.8338 50.4403C36.9853 50.975 36.0029 51.2587 35 51.2587C33.997 51.2587 33.0146 50.975 32.1661 50.4403C31.3176 49.9056 30.6377 49.1417 30.205 48.237C30.0399 47.7849 29.7398 47.3944 29.3454 47.1185C28.951 46.8426 28.4813 46.6946 28 46.6946C27.5186 46.6946 27.0489 46.8426 26.6545 47.1185C26.2601 47.3944 25.96 47.7849 25.795 48.237C25.3602 49.1509 24.6731 49.9214 23.8148 50.4577C22.9565 50.9939 21.9627 51.2735 20.9507 51.2634C19.9387 51.2534 18.9507 50.9541 18.1032 50.4009C17.2557 49.8477 16.5841 49.0637 16.1676 48.1413C15.9851 47.7175 15.6825 47.3564 15.297 47.1027C14.9116 46.849 14.4602 46.7138 13.9988 46.7138C13.5373 46.7138 13.086 46.849 12.7006 47.1027C12.3151 47.3564 12.0124 47.7175 11.83 48.1413C11.5172 48.8682 11.0412 49.5132 10.4389 50.0263C9.83656 50.5394 9.12408 50.9069 8.35675 51.1C7.58943 51.2932 6.78791 51.307 6.01441 51.1403C5.2409 50.9735 4.51622 50.6308 3.89662 50.1387C3.66834 49.9337 3.40191 49.7757 3.11256 49.6736C2.82321 49.5716 2.51659 49.5276 2.21022 49.544C1.90385 49.5605 1.60372 49.6371 1.32697 49.7696C1.05023 49.9021 0.802276 50.0877 0.597283 50.316C0.392289 50.5443 0.234267 50.8107 0.132237 51.1001C0.0302068 51.3894 -0.0138318 51.696 0.00263512 52.0024C0.019102 52.3088 0.0957521 52.6089 0.228209 52.8856C0.360666 53.1624 0.546335 53.4103 0.774616 53.6153C2.63623 55.2106 5.02968 56.0474 7.47973 55.9597C9.92978 55.8719 12.2572 54.866 14 53.1417C15.8834 54.9466 18.3913 55.9542 21 55.9542C23.6086 55.9542 26.1165 54.9466 28 53.1417C29.8834 54.9466 32.3913 55.9542 35 55.9542C37.6086 55.9542 40.1165 54.9466 42 53.1417C43.7433 54.8655 46.0713 55.8705 48.5215 55.9569C50.9717 56.0434 53.3648 55.205 55.2253 53.6083C55.65 53.1862 55.8961 52.617 55.9128 52.0185C55.9296 51.42 55.7155 50.8379 55.3151 50.3928C54.9146 49.9477 54.3583 49.6735 53.7614 49.6271C53.1644 49.5807 52.5724 49.7655 52.108 50.1433Z" fill="#26948A"/>
<path d="M4.66645 39.6667V26.061C4.66658 25.4422 4.9125 24.8488 5.35012 24.4113L23.0484 6.71767C24.3637 5.4085 26.144 4.67353 27.9998 4.67353C29.8556 4.67353 31.6358 5.4085 32.9511 6.71767L50.6494 24.4183C51.0812 24.8531 51.3264 25.439 51.3331 26.0517V39.6667C51.3331 40.2855 51.5789 40.879 52.0165 41.3166C52.4541 41.7542 53.0476 42 53.6664 42C54.2853 42 54.8788 41.7542 55.3164 41.3166C55.7539 40.879 55.9998 40.2855 55.9998 39.6667V26.061C56.0024 25.1414 55.8224 24.2304 55.4704 23.3809C55.1183 22.5314 54.6011 21.7602 53.9488 21.112L36.2504 3.41133C34.06 1.22731 31.093 0.000869751 27.9998 0.000869751C24.9066 0.000869751 21.9395 1.22731 19.7491 3.41133L2.05078 21.112C1.39844 21.7602 0.881247 22.5314 0.529176 23.3809C0.177106 24.2304 -0.00283507 25.1414 -0.000215955 26.061V39.6667C-0.000215955 40.2855 0.245617 40.879 0.683201 41.3166C1.12079 41.7542 1.71428 42 2.33312 42C2.95196 42 3.54545 41.7542 3.98303 41.3166C4.42062 40.879 4.66645 40.2855 4.66645 39.6667Z" fill="#26948A"/>
<path d="M28 30.4057C25.4428 30.4066 22.9568 31.2477 20.9243 32.7996C18.8919 34.3514 17.4256 36.5281 16.751 38.9947C16.6511 39.3436 16.6331 39.7108 16.6984 40.0678C16.7638 40.4248 16.9107 40.7619 17.1277 41.0527C17.3448 41.3436 17.626 41.5804 17.9496 41.7448C18.2732 41.9091 18.6304 41.9964 18.9933 42C19.523 41.9857 20.0332 41.7974 20.4452 41.4643C20.8572 41.1311 21.1481 40.6716 21.273 40.1567C21.693 38.697 22.5764 37.4136 23.7899 36.5001C25.0034 35.5865 26.4811 35.0925 28 35.0925C29.5189 35.0925 30.9966 35.5865 32.21 36.5001C33.4235 37.4136 34.3069 38.697 34.727 40.1567C34.8518 40.6716 35.1427 41.1311 35.5547 41.4643C35.9667 41.7974 36.477 41.9857 37.0066 42C37.3695 41.9964 37.7267 41.9091 38.0503 41.7448C38.3739 41.5804 38.6552 41.3436 38.8722 41.0527C39.0892 40.7619 39.2362 40.4248 39.3015 40.0678C39.3669 39.7108 39.3489 39.3436 39.249 38.9947C38.5744 36.5281 37.1081 34.3514 35.0756 32.7996C33.0432 31.2477 30.5571 30.4066 28 30.4057Z" fill="#26948A"/>
</g>
<defs>
<clipPath id="clip0_181_852">
<rect width="56" height="56" fill="white"/>
</clipPath>
</defs>
</svg>
